<svg width="185" height="239" viewBox="0 0 185 239" fill="none" xmlns="http://www.w3.org/2000/svg">
<path d="M112.242 51.521C104.812 51.521 98.1784 53.1111 92.3408 56.2914C86.5032 59.3657 81.5146 63.8711 77.3752 69.8077C73.2358 75.7443 70.0516 83.006 67.8227 91.5928C65.6999 100.074 64.6386 109.721 64.6386 120.534C64.6386 135.163 66.496 147.46 70.2108 157.425C73.9257 167.39 79.5511 174.917 87.0869 180.005C94.7289 185.094 104.281 187.638 115.744 187.638C126.146 187.638 136.123 186.207 145.676 183.345C155.334 180.482 165.046 177.037 174.811 173.009V226.12C164.515 230.678 153.954 233.965 143.128 235.979C132.408 237.993 120.998 239 108.898 239C83.6374 239 62.9403 234.018 46.8072 224.053C30.7803 213.982 18.9458 200.041 11.3038 182.232C3.76793 164.422 0 143.75 0 120.216C0 102.618 2.44119 86.5043 7.32358 71.8749C12.3121 57.2455 19.5826 44.5773 29.1351 33.8703C38.6876 23.0572 50.469 14.7354 64.4793 8.90486C78.5958 2.96829 94.7289 0 112.879 0C124.129 0 135.964 1.32513 148.382 3.97538C160.906 6.51963 173.112 10.654 185 16.3786L165.736 65.8323C157.245 61.8039 148.647 58.4116 139.944 55.6554C131.241 52.8991 122.007 51.521 112.242 51.521Z" fill="#FABD03"/>
</svg>
