<svg width="161" height="186" viewBox="0 0 161 186" fill="none" xmlns="http://www.w3.org/2000/svg">
<path d="M161 89.0561C161 110.684 156.892 128.665 148.675 142.999C140.459 157.332 128.869 168.104 113.907 175.313C99.0303 182.438 81.5163 186 61.3642 186H0V0H65.6454C86.0569 0 103.355 3.43502 117.539 10.3051C131.723 17.1751 142.491 27.2257 149.843 40.4569C157.281 53.6881 161 69.8878 161 89.0561ZM107.809 90.8372C107.809 79.5568 106.252 70.2271 103.139 62.8482C100.111 55.3844 95.5275 49.829 89.3868 46.1819C83.246 42.4501 75.5052 40.5841 66.1644 40.5841H51.245V144.78H62.6616C78.2297 144.78 89.6463 140.369 96.9114 131.549C104.176 122.643 107.809 109.073 107.809 90.8372Z" fill="#109D58"/>
</svg>
