<svg width="146" height="173" viewBox="0 0 146 173" fill="none" xmlns="http://www.w3.org/2000/svg">
<path d="M73.5739 72.1697H146V162.871C137.353 165.864 127.444 168.319 116.272 170.238C105.1 172.079 93.3926 173 81.1494 173C65.0037 173 50.8475 169.854 38.6808 163.562C26.5142 157.269 17.0257 147.716 10.2154 134.901C3.40514 122.009 0 105.741 0 86.0971C0 68.448 3.36688 53.216 10.1006 40.4012C16.8344 27.5096 26.7437 17.5724 39.8286 10.5895C52.99 3.52983 69.0975 0 88.1509 0C98.6342 0 108.582 0.99756 117.994 2.99268C127.406 4.9878 135.593 7.52007 142.557 10.5895L128.209 46.2715C122.164 43.2788 115.889 41.0534 109.385 39.5955C102.881 38.0608 95.8795 37.2934 88.3805 37.2934C78.3564 37.2934 70.2835 39.5571 64.1619 44.0845C58.1169 48.6119 53.717 54.674 50.9623 62.2708C48.2075 69.7909 46.8302 78.1167 46.8302 87.2482C46.8302 97.6842 48.2841 106.509 51.1918 113.722C54.1761 120.858 58.4995 126.306 64.1619 130.067C69.9009 133.75 76.826 135.591 84.9371 135.591C87.6153 135.591 90.8674 135.4 94.6934 135.016C98.5959 134.632 101.542 134.172 103.531 133.635V107.276H73.5739V72.1697Z" fill="#4286F5"/>
</svg>
