<svg width="36" height="36" viewBox="0 0 36 36" fill="none" xmlns="http://www.w3.org/2000/svg">
<mask id="path-1-inside-1_3424_150" fill="white">
<path d="M18 0C13.11 0 12.4995 0.0225 10.5795 0.108C8.6625 0.198 7.3575 0.4995 6.21 0.945C5.0265 1.404 4.0215 2.0205 3.021 3.021C2.0205 4.0215 1.4025 5.025 0.945 6.21C0.4995 7.3575 0.1965 8.6625 0.108 10.5795C0.018 12.4995 0 13.11 0 18C0 22.89 0.0225 23.5005 0.108 25.4205C0.198 27.336 0.4995 28.6425 0.945 29.79C1.39694 30.9913 2.1054 32.0796 3.021 32.979C3.91992 33.8952 5.00835 34.6038 6.21 35.055C7.359 35.499 8.664 35.8035 10.5795 35.892C12.4995 35.982 13.11 36 18 36C22.89 36 23.5005 35.9775 25.4205 35.892C27.336 35.802 28.6425 35.499 29.79 35.055C30.991 34.6025 32.0792 33.8941 32.979 32.979C33.8955 32.0803 34.6041 30.9918 35.055 29.79C35.499 28.6425 35.8035 27.336 35.892 25.4205C35.982 23.5005 36 22.89 36 18C36 13.11 35.9775 12.4995 35.892 10.5795C35.802 8.664 35.499 7.356 35.055 6.21C34.6028 5.00883 33.8944 3.92059 32.979 3.021C32.0807 2.10396 30.9921 1.39528 29.79 0.945C28.6425 0.4995 27.336 0.1965 25.4205 0.108C23.5005 0.018 22.89 0 18 0ZM18 3.24C22.8045 3.24 23.3775 3.264 25.275 3.3465C27.03 3.429 27.9825 3.72 28.6155 3.969C29.4585 4.2945 30.0555 4.6845 30.6885 5.313C31.317 5.943 31.707 6.5415 32.0325 7.3845C32.2785 8.0175 32.5725 8.97 32.652 10.725C32.7375 12.624 32.757 13.194 32.757 18C32.757 22.806 32.7345 23.3775 32.646 25.275C32.5545 27.03 32.262 27.9825 32.0145 28.6155C31.7217 29.3966 31.2614 30.1042 30.666 30.6885C30.0842 31.2844 29.3771 31.7435 28.596 32.0325C27.966 32.2785 26.9985 32.5725 25.2435 32.652C23.3325 32.7375 22.77 32.757 17.955 32.757C13.1385 32.757 12.576 32.7345 10.6665 32.646C8.91 32.5545 7.9425 32.262 7.3125 32.0145C6.53086 31.7253 5.82401 31.2645 5.244 30.666C4.64187 30.0881 4.18007 29.38 3.894 28.596C3.6465 27.966 3.3555 26.9985 3.264 25.2435C3.1965 23.3535 3.1725 22.77 3.1725 17.9775C3.1725 13.1835 3.1965 12.5985 3.264 10.686C3.3555 8.931 3.6465 7.965 3.894 7.335C4.209 6.48 4.6125 5.895 5.244 5.2635C5.8725 4.635 6.459 4.23 7.3125 3.9165C7.9425 3.6675 8.889 3.375 10.644 3.285C12.5565 3.2175 13.119 3.195 17.9325 3.195L18 3.24ZM18 8.757C16.7862 8.757 15.5843 8.99608 14.4629 9.46058C13.3414 9.92509 12.3225 10.6059 11.4642 11.4642C10.6059 12.3225 9.92509 13.3414 9.46058 14.4629C8.99608 15.5843 8.757 16.7862 8.757 18C8.757 19.2138 8.99608 20.4157 9.46058 21.5371C9.92509 22.6586 10.6059 23.6775 11.4642 24.5358C12.3225 25.3941 13.3414 26.0749 14.4629 26.5394C15.5843 27.0039 16.7862 27.243 18 27.243C20.4514 27.243 22.8024 26.2692 24.5358 24.5358C26.2692 22.8024 27.243 20.4514 27.243 18C27.243 15.5486 26.2692 13.1976 24.5358 11.4642C22.8024 9.73081 20.4514 8.757 18 8.757ZM18 24C14.685 24 12 21.315 12 18C12 14.685 14.685 12 18 12C21.315 12 24 14.685 24 18C24 21.315 21.315 24 18 24ZM29.769 8.3925C29.7482 8.95144 29.5115 9.48054 29.1087 9.8686C28.7059 10.2567 28.1683 10.4735 27.609 10.4735C27.0497 10.4735 26.5121 10.2567 26.1093 9.8686C25.7065 9.48054 25.4698 8.95144 25.449 8.3925C25.449 7.81963 25.6766 7.27023 26.0816 6.86515C26.4867 6.46007 27.0361 6.2325 27.609 6.2325C28.1819 6.2325 28.7313 6.46007 29.1364 6.86515C29.5414 7.27023 29.769 7.81963 29.769 8.3925Z"/>
</mask>
<path d="M18 0C13.11 0 12.4995 0.0225 10.5795 0.108C8.6625 0.198 7.3575 0.4995 6.21 0.945C5.0265 1.404 4.0215 2.0205 3.021 3.021C2.0205 4.0215 1.4025 5.025 0.945 6.21C0.4995 7.3575 0.1965 8.6625 0.108 10.5795C0.018 12.4995 0 13.11 0 18C0 22.89 0.0225 23.5005 0.108 25.4205C0.198 27.336 0.4995 28.6425 0.945 29.79C1.39694 30.9913 2.1054 32.0796 3.021 32.979C3.91992 33.8952 5.00835 34.6038 6.21 35.055C7.359 35.499 8.664 35.8035 10.5795 35.892C12.4995 35.982 13.11 36 18 36C22.89 36 23.5005 35.9775 25.4205 35.892C27.336 35.802 28.6425 35.499 29.79 35.055C30.991 34.6025 32.0792 33.8941 32.979 32.979C33.8955 32.0803 34.6041 30.9918 35.055 29.79C35.499 28.6425 35.8035 27.336 35.892 25.4205C35.982 23.5005 36 22.89 36 18C36 13.11 35.9775 12.4995 35.892 10.5795C35.802 8.664 35.499 7.356 35.055 6.21C34.6028 5.00883 33.8944 3.92059 32.979 3.021C32.0807 2.10396 30.9921 1.39528 29.79 0.945C28.6425 0.4995 27.336 0.1965 25.4205 0.108C23.5005 0.018 22.89 0 18 0ZM18 3.24C22.8045 3.24 23.3775 3.264 25.275 3.3465C27.03 3.429 27.9825 3.72 28.6155 3.969C29.4585 4.2945 30.0555 4.6845 30.6885 5.313C31.317 5.943 31.707 6.5415 32.0325 7.3845C32.2785 8.0175 32.5725 8.97 32.652 10.725C32.7375 12.624 32.757 13.194 32.757 18C32.757 22.806 32.7345 23.3775 32.646 25.275C32.5545 27.03 32.262 27.9825 32.0145 28.6155C31.7217 29.3966 31.2614 30.1042 30.666 30.6885C30.0842 31.2844 29.3771 31.7435 28.596 32.0325C27.966 32.2785 26.9985 32.5725 25.2435 32.652C23.3325 32.7375 22.77 32.757 17.955 32.757C13.1385 32.757 12.576 32.7345 10.6665 32.646C8.91 32.5545 7.9425 32.262 7.3125 32.0145C6.53086 31.7253 5.82401 31.2645 5.244 30.666C4.64187 30.0881 4.18007 29.38 3.894 28.596C3.6465 27.966 3.3555 26.9985 3.264 25.2435C3.1965 23.3535 3.1725 22.77 3.1725 17.9775C3.1725 13.1835 3.1965 12.5985 3.264 10.686C3.3555 8.931 3.6465 7.965 3.894 7.335C4.209 6.48 4.6125 5.895 5.244 5.2635C5.8725 4.635 6.459 4.23 7.3125 3.9165C7.9425 3.6675 8.889 3.375 10.644 3.285C12.5565 3.2175 13.119 3.195 17.9325 3.195L18 3.24ZM18 8.757C16.7862 8.757 15.5843 8.99608 14.4629 9.46058C13.3414 9.92509 12.3225 10.6059 11.4642 11.4642C10.6059 12.3225 9.92509 13.3414 9.46058 14.4629C8.99608 15.5843 8.757 16.7862 8.757 18C8.757 19.2138 8.99608 20.4157 9.46058 21.5371C9.92509 22.6586 10.6059 23.6775 11.4642 24.5358C12.3225 25.3941 13.3414 26.0749 14.4629 26.5394C15.5843 27.0039 16.7862 27.243 18 27.243C20.4514 27.243 22.8024 26.2692 24.5358 24.5358C26.2692 22.8024 27.243 20.4514 27.243 18C27.243 15.5486 26.2692 13.1976 24.5358 11.4642C22.8024 9.73081 20.4514 8.757 18 8.757ZM18 24C14.685 24 12 21.315 12 18C12 14.685 14.685 12 18 12C21.315 12 24 14.685 24 18C24 21.315 21.315 24 18 24ZM29.769 8.3925C29.7482 8.95144 29.5115 9.48054 29.1087 9.8686C28.7059 10.2567 28.1683 10.4735 27.609 10.4735C27.0497 10.4735 26.5121 10.2567 26.1093 9.8686C25.7065 9.48054 25.4698 8.95144 25.449 8.3925C25.449 7.81963 25.6766 7.27023 26.0816 6.86515C26.4867 6.46007 27.0361 6.2325 27.609 6.2325C28.1819 6.2325 28.7313 6.46007 29.1364 6.86515C29.5414 7.27023 29.769 7.81963 29.769 8.3925Z" fill="#EA4235"/>
<path d="M10.5795 0.108L9.15591 -31.8603L9.11736 -31.8586L9.07881 -31.8568L10.5795 0.108ZM6.21 0.945L17.7809 30.7798L17.7913 30.7757L6.21 0.945ZM0.945 6.21L30.7757 17.7913L30.7866 17.7633L30.7974 17.7353L0.945 6.21ZM0.108 10.5795L32.0729 12.0779L32.0734 12.0665L32.074 12.0552L0.108 10.5795ZM0.108 25.4205L-31.8603 26.8441L-31.8586 26.8832L-31.8567 26.9224L0.108 25.4205ZM0.945 29.79L30.8956 18.5222L30.8365 18.3651L30.7757 18.2087L0.945 29.79ZM3.021 32.979L25.8634 10.5686L25.6566 10.3579L25.446 10.151L3.021 32.979ZM6.21 35.055L17.7443 5.20606L17.6017 5.15096L17.4587 5.09723L6.21 35.055ZM10.5795 35.892L12.0779 3.9271L12.0671 3.92659L12.0564 3.9261L10.5795 35.892ZM25.4205 35.892L26.8441 67.8603L26.8832 67.8586L26.9224 67.8567L25.4205 35.892ZM29.79 35.055L18.5076 5.10992L18.3749 5.15994L18.2426 5.21113L29.79 35.055ZM32.979 32.979L10.5755 10.1298L10.3668 10.3345L10.1619 10.5429L32.979 32.979ZM35.055 29.79L5.21113 18.2426L5.15169 18.3962L5.09383 18.5504L35.055 29.79ZM35.892 25.4205L3.9271 23.9221L3.92659 23.9329L3.9261 23.9436L35.892 25.4205ZM35.892 10.5795L67.8603 9.15591L67.8586 9.11677L67.8567 9.07763L35.892 10.5795ZM35.055 6.21L5.10654 17.4834L5.16069 17.6273L5.21622 17.7706L35.055 6.21ZM32.979 3.021L10.1188 25.4132L10.3322 25.6311L10.5497 25.8448L32.979 3.021ZM29.79 0.945L18.2087 30.7757L18.3865 30.8448L18.5652 30.9117L29.79 0.945ZM25.4205 0.108L23.9221 32.0729L23.9329 32.0734L23.9436 32.0739L25.4205 0.108ZM25.275 3.3465L26.7776 -28.6182L26.7213 -28.6208L26.665 -28.6233L25.275 3.3465ZM28.6155 3.969L16.9015 33.7479L16.9952 33.7847L17.089 33.821L28.6155 3.969ZM30.6885 5.313L53.3429 -17.2874L53.2891 -17.3413L53.2351 -17.395L30.6885 5.313ZM32.0325 7.3845L2.18052 18.911L2.19308 18.9435L2.2057 18.976L32.0325 7.3845ZM32.652 10.725L64.6196 9.2857L64.6192 9.27691L32.652 10.725ZM32.646 25.275L64.6026 26.9411L64.6072 26.8535L64.6113 26.7659L32.646 25.275ZM32.0145 28.6155L2.21161 16.9627L2.1296 17.1724L2.05056 17.3833L32.0145 28.6155ZM30.666 30.6885L8.25271 7.84896L8.00801 8.0891L7.7685 8.33443L30.666 30.6885ZM28.596 32.0325L17.4934 2.02031L17.2241 2.11993L16.9566 2.22436L28.596 32.0325ZM25.2435 32.652L26.6738 64.62L26.6827 64.6196L26.6916 64.6192L25.2435 32.652ZM10.6665 32.646L9.00181 64.6027L9.09338 64.6074L9.18498 64.6117L10.6665 32.646ZM7.3125 32.0145L19.0134 2.23045L18.7162 2.11369L18.4167 2.00288L7.3125 32.0145ZM5.244 30.666L28.2233 8.39604L27.82 7.97992L27.402 7.57868L5.244 30.666ZM3.894 28.596L33.9554 17.6272L33.8212 17.2595L33.678 16.8951L3.894 28.596ZM3.264 25.2435L-28.7156 26.3856L-28.7063 26.6477L-28.6926 26.9096L3.264 25.2435ZM3.264 10.686L-28.6926 9.01989L-28.7066 9.28849L-28.7161 9.55729L3.264 10.686ZM3.894 7.335L33.678 19.0359L33.8029 18.718L33.921 18.3976L3.894 7.335ZM7.3125 3.9165L18.3457 33.9543L18.7119 33.8198L19.0747 33.6764L7.3125 3.9165ZM10.644 3.285L9.51529 -28.6951L9.26012 -28.6861L9.00513 -28.673L10.644 3.285ZM17.9325 3.195L35.6829 -23.4306L27.6213 -28.805H17.9325V3.195ZM8.757 18H-23.243H8.757ZM18 27.243V-4.757V27.243ZM27.609 10.4735L27.609 -21.5265L27.609 10.4735ZM25.449 8.3925L-6.551 8.3925V8.98868L-6.52879 9.58445L25.449 8.3925ZM27.609 6.2325V38.2325V6.2325ZM18 -32C12.926 -32 11.7716 -31.9768 9.15591 -31.8603L12.0031 32.0763C12.8914 32.0368 13.1584 32.0264 13.6959 32.0177C14.4051 32.0062 15.5359 32 18 32V-32ZM9.07881 -31.8568C4.18158 -31.6269 -0.587179 -30.7431 -5.37134 -28.8857L17.7913 30.7757C16.7347 31.186 15.5813 31.5311 14.401 31.7679C13.2816 31.9925 12.4585 32.055 12.0802 32.0728L9.07881 -31.8568ZM-5.3609 -28.8898C-10.4029 -26.9343 -15.2501 -23.9627 -19.6064 -19.6064L25.6484 25.6484C24.6425 26.6543 23.3709 27.722 21.8346 28.7083C20.3056 29.6898 18.8902 30.3496 17.7809 30.7798L-5.3609 -28.8898ZM-19.6064 -19.6064C-23.9391 -15.2737 -26.9343 -10.4259 -28.9074 -5.3153L30.7974 17.7353C30.3574 18.875 29.6887 20.3074 28.7005 21.8452C27.7093 23.3877 26.6418 24.655 25.6484 25.6484L-19.6064 -19.6064ZM-28.8857 -5.37134C-30.7367 -0.603643 -31.6301 4.16847 -31.858 9.10376L32.074 12.0552C32.0558 12.449 31.9921 13.2824 31.7658 14.409C31.5274 15.5954 31.1815 16.7461 30.7757 17.7913L-28.8857 -5.37134ZM-31.8569 9.08115C-31.9832 11.7755 -32 12.9948 -32 18H32C32 15.5177 32.0051 14.3906 32.0163 13.678C32.0244 13.1632 32.0338 12.9121 32.0729 12.0779L-31.8569 9.08115ZM-32 18C-32 23.074 -31.9768 24.2284 -31.8603 26.8441L32.0763 23.9969C32.0368 23.1086 32.0264 22.8416 32.0177 22.3041C32.0062 21.5949 32 20.4641 32 18H-32ZM-31.8567 26.9224C-31.6269 31.8145 -30.744 36.5849 -28.8857 41.3713L30.7757 18.2087C31.1874 19.2689 31.5321 20.4225 31.7683 21.6C31.9924 22.7173 32.0549 23.5393 32.0727 23.9186L-31.8567 26.9224ZM-29.0056 41.0578C-26.9153 46.6138 -23.6387 51.6471 -19.404 55.807L25.446 10.151C27.8495 12.512 29.7092 15.3688 30.8956 18.5222L-29.0056 41.0578ZM-19.8214 55.3894C-15.6544 59.6367 -10.609 62.9212 -5.03865 65.0128L17.4587 5.09723C20.6257 6.2864 23.4943 8.15383 25.8634 10.5686L-19.8214 55.3894ZM-5.32432 64.9039C-0.608026 66.7264 4.13936 67.6286 9.10261 67.8579L12.0564 3.9261C12.462 3.94484 13.2966 4.00967 14.4181 4.23526C15.5971 4.47244 16.7291 4.81374 17.7443 5.20606L-5.32432 64.9039ZM9.08115 67.8569C11.7755 67.9832 12.9948 68 18 68V4C15.5177 4 14.3906 3.99487 13.678 3.98369C13.1632 3.97561 12.9122 3.96621 12.0779 3.9271L9.08115 67.8569ZM18 68C23.074 68 24.2284 67.9768 26.8441 67.8603L23.9969 3.92368C23.1086 3.96324 22.8416 3.97355 22.3041 3.98229C21.5949 3.99381 20.4641 4 18 4V68ZM26.9224 67.8567C31.84 67.6257 36.5919 66.735 41.3374 64.8989L18.2426 5.21113C19.2801 4.80967 20.4196 4.46826 21.592 4.23278C22.7059 4.00906 23.5294 3.94555 23.9186 3.92726L26.9224 67.8567ZM41.0724 65.0001C46.6175 62.9109 51.6416 59.6402 55.7961 55.4151L10.1619 10.5429C12.5168 8.14801 15.3645 6.29414 18.5076 5.10992L41.0724 65.0001ZM55.3825 55.8282C59.6357 51.6579 62.924 46.6067 65.0162 41.0296L5.09383 18.5504C6.28432 15.377 8.15539 12.5028 10.5755 10.1298L55.3825 55.8282ZM64.8989 41.3374C66.7286 36.6085 67.6289 31.853 67.8579 26.8974L3.9261 23.9436C3.9448 23.5389 4.00949 22.7051 4.23494 21.5841C4.47196 20.4055 4.81409 19.2687 5.21113 18.2426L64.8989 41.3374ZM67.8569 26.9189C67.9832 24.2245 68 23.0052 68 18H4C4 20.4823 3.99487 21.6094 3.98369 22.322C3.97561 22.8368 3.96621 23.0878 3.9271 23.9221L67.8569 26.9189ZM68 18C68 12.926 67.9768 11.7716 67.8603 9.15591L3.92368 12.0031C3.96324 12.8914 3.97355 13.1584 3.98229 13.6959C3.99381 14.4051 4 15.5359 4 18H68ZM67.8567 9.07763C67.626 4.16768 66.7372 -0.592477 64.8938 -5.35058L5.21622 17.7706C4.81003 16.7222 4.46778 15.5778 4.23246 14.4058C4.00888 13.2923 3.94551 12.4697 3.92726 12.0814L67.8567 9.07763ZM65.0035 -5.06342C62.9136 -10.6152 59.6393 -15.645 55.4083 -19.8028L10.5497 25.8448C8.14956 23.4862 6.29208 20.6329 5.10654 17.4834L65.0035 -5.06342ZM55.8392 -19.3712C51.6635 -23.6342 46.603 -26.9285 41.0148 -29.0217L18.5652 30.9117C15.3813 29.7191 12.4979 27.8421 10.1188 25.4132L55.8392 -19.3712ZM41.3713 -28.8857C36.6014 -30.7376 31.8276 -31.6301 26.8974 -31.8579L23.9436 32.0739C23.5488 32.0557 22.7165 31.9919 21.592 31.7661C20.4084 31.5284 19.2575 31.1829 18.2087 30.7757L41.3713 -28.8857ZM26.9189 -31.8569C24.2245 -31.9832 23.0052 -32 18 -32V32C20.4823 32 21.6094 32.0051 22.322 32.0163C22.8368 32.0244 23.0879 32.0338 23.9221 32.0729L26.9189 -31.8569ZM18 35.24C20.4149 35.24 21.5135 35.2465 22.1956 35.2579C22.7181 35.2666 22.9717 35.2766 23.885 35.3163L26.665 -28.6233C24.1126 -28.7343 23.0249 -28.76 18 -28.76V35.24ZM23.7724 35.3112C23.1501 35.282 22.0828 35.1875 20.7059 34.8946C19.2176 34.5779 17.9109 34.145 16.9015 33.7479L40.3295 -25.8099C36.3867 -27.3608 31.9806 -28.3736 26.7776 -28.6182L23.7724 35.3112ZM17.089 33.821C15.8105 33.3273 14.1286 32.5509 12.3017 31.3645C10.4759 30.1787 9.09221 28.9645 8.14194 28.021L53.2351 -17.395C49.4876 -21.1158 45.1461 -23.9508 40.142 -25.883L17.089 33.821ZM8.03413 27.9134C7.05922 26.9362 5.83007 25.5349 4.63704 23.6979C3.44622 21.8643 2.67079 20.1807 2.18052 18.911L61.8845 -4.14197C59.9617 -9.12176 57.1258 -13.4955 53.3429 -17.2874L8.03413 27.9134ZM2.2057 18.976C1.8495 18.0594 1.42269 16.785 1.10544 15.2941C0.811311 13.9119 0.714459 12.8282 0.684781 12.1731L64.6192 9.27691C64.379 3.97406 63.3386 -0.400343 61.8593 -4.20696L2.2057 18.976ZM0.684384 12.1643C0.72331 13.0289 0.732567 13.2746 0.740591 13.7801C0.751523 14.469 0.756999 15.5675 0.756999 18H64.757C64.757 13.0386 64.7375 11.9051 64.6196 9.2857L0.684384 12.1643ZM0.756999 18C0.756999 20.4264 0.750734 21.5128 0.739317 22.1838C0.731004 22.6725 0.721841 22.9031 0.680748 23.7841L64.6113 26.7659C64.7337 24.1397 64.757 22.9984 64.757 18H0.756999ZM0.689403 23.6089C0.720768 23.0073 0.817042 21.9714 1.10516 20.6327C1.41668 19.1854 1.83663 17.9217 2.21161 16.9627L61.8174 40.2683C63.3193 36.4269 64.3336 32.1014 64.6026 26.9411L0.689403 23.6089ZM2.05056 17.3833C3.3973 13.7906 5.51425 10.5363 8.25271 7.84896L53.0793 53.528C57.0086 49.6721 60.0461 45.0027 61.9784 39.8477L2.05056 17.3833ZM7.7685 8.33443C10.5018 5.53464 13.8237 3.37786 17.4934 2.02031L39.6986 62.0447C44.9306 60.1092 49.6665 57.0343 53.5635 53.0426L7.7685 8.33443ZM16.9566 2.22436C17.9688 1.82912 19.2597 1.40606 20.7213 1.09699C22.081 0.809475 23.1466 0.714174 23.7954 0.684781L26.6916 64.6192C31.9224 64.3823 36.3337 63.3641 40.2354 61.8406L16.9566 2.22436ZM23.8132 0.68398C22.9368 0.723191 22.689 0.732527 22.1809 0.740584C21.4911 0.751523 20.3921 0.756999 17.955 0.756999V64.757C22.9293 64.757 24.0495 64.7374 26.6738 64.62L23.8132 0.68398ZM17.955 0.756999C15.5232 0.756999 14.4364 0.750734 13.7647 0.739312C13.2737 0.730964 13.0417 0.721734 12.148 0.680314L9.18498 64.6117C11.8155 64.7336 12.942 64.757 17.955 64.757V0.756999ZM12.3312 0.689329C12.924 0.720212 13.9413 0.814543 15.2579 1.09605C16.6759 1.39925 17.9588 1.81615 19.0134 2.23045L-4.38838 61.7985C-0.450085 63.3457 3.91557 64.3377 9.00181 64.6027L12.3312 0.689329ZM18.4167 2.00288C22.1224 3.37399 25.4735 5.55864 28.2233 8.39604L-17.7353 52.936C-13.8255 56.9703 -9.0607 60.0766 -3.79168 62.0261L18.4167 2.00288ZM27.402 7.57868C30.3249 10.384 32.5667 13.8214 33.9554 17.6272L-26.1674 39.5648C-24.2065 44.9387 -21.0412 49.7922 -16.914 53.7533L27.402 7.57868ZM33.678 16.8951C34.0996 17.9682 34.5158 19.256 34.8172 20.6693C35.0969 21.9816 35.1901 22.9928 35.2206 23.5774L-28.6926 26.9096C-28.4289 31.9669 -27.4466 36.3347 -25.89 40.2969L33.678 16.8951ZM35.2436 24.1014C35.2096 23.148 35.1984 22.835 35.1895 22.2281C35.1788 21.5057 35.1725 20.3708 35.1725 17.9775H-28.8275C-28.8275 23.0052 -28.8011 23.9931 -28.7156 26.3856L35.2436 24.1014ZM35.1725 17.9775C35.1725 15.5841 35.1788 14.4473 35.1895 13.7204C35.1985 13.1051 35.2099 12.7832 35.2441 11.8147L-28.7161 9.55729C-28.801 11.9621 -28.8275 12.9449 -28.8275 17.9775H35.1725ZM35.2206 12.3521C35.1901 12.9373 35.0967 13.9505 34.8162 15.2653C34.5139 16.6822 34.097 17.9694 33.678 19.0359L-25.89 -4.36588C-27.4444 -0.409306 -28.4286 3.95643 -28.6926 9.01989L35.2206 12.3521ZM33.921 18.3976C33.3292 20.0037 32.4459 21.891 31.1568 23.8439C29.9007 25.7469 28.6606 27.1017 27.8714 27.8909L-17.3834 -17.3639C-20.8352 -13.9121 -24.0092 -9.49201 -26.133 -3.72757L33.921 18.3976ZM27.8714 27.8909C27.0756 28.6867 25.7197 29.9263 23.8187 31.1808C21.8681 32.468 19.9746 33.356 18.3457 33.9543L-3.72071 -26.1213C-9.50902 -23.9952 -13.9389 -20.8085 -17.3834 -17.3639L27.8714 27.8909ZM19.0747 33.6764C18.0862 34.0671 16.7921 34.5002 15.3122 34.8198C13.9458 35.115 12.8901 35.2119 12.2829 35.243L9.00513 -28.673C3.82612 -28.4074 -0.543187 -27.3874 -4.44973 -25.8434L19.0747 33.6764ZM11.7727 35.2651C12.7338 35.2312 13.0497 35.2201 13.6589 35.2114C14.3863 35.201 15.5239 35.195 17.9325 35.195V-28.805C12.8972 -28.805 11.9318 -28.7804 9.51529 -28.6951L11.7727 35.2651ZM0.182126 29.8206L0.249626 29.8656L35.7504 -23.3856L35.6829 -23.4306L0.182126 29.8206ZM18 -23.243C12.5839 -23.243 7.22081 -22.1762 2.21699 -20.1036L26.7087 39.0247C23.9477 40.1684 20.9885 40.757 18 40.757V-23.243ZM2.21699 -20.1036C-2.78684 -18.0309 -7.33343 -14.993 -11.1632 -11.1632L34.0916 34.0916C31.9784 36.2048 29.4697 37.8811 26.7087 39.0247L2.21699 -20.1036ZM-11.1632 -11.1632C-14.993 -7.33344 -18.0309 -2.78684 -20.1036 2.21699L39.0247 26.7087C37.8811 29.4697 36.2048 31.9784 34.0916 34.0916L-11.1632 -11.1632ZM-20.1036 2.21699C-22.1762 7.22082 -23.243 12.5839 -23.243 18H40.757C40.757 20.9885 40.1684 23.9477 39.0247 26.7087L-20.1036 2.21699ZM-23.243 18C-23.243 23.4161 -22.1762 28.7792 -20.1036 33.783L39.0247 9.29127C40.1684 12.0523 40.757 15.0115 40.757 18H-23.243ZM-20.1036 33.783C-18.0309 38.7869 -14.993 43.3335 -11.1632 47.1632L34.0916 1.90837C36.2048 4.02154 37.8811 6.53025 39.0247 9.29127L-20.1036 33.783ZM-11.1632 47.1632C-7.33345 50.993 -2.78686 54.0309 2.21699 56.1036L26.7087 -3.02473C29.4697 -1.88108 31.9785 -0.204803 34.0916 1.90837L-11.1632 47.1632ZM2.21699 56.1036C7.2208 58.1762 12.5839 59.243 18 59.243V-4.757C20.9885 -4.757 23.9477 -4.16836 26.7087 -3.02473L2.21699 56.1036ZM18 59.243C28.9383 59.243 39.4287 54.8977 47.1632 47.1632L1.90837 1.90837C6.17612 -2.35938 11.9644 -4.757 18 -4.757V59.243ZM47.1632 47.1632C54.8977 39.4287 59.243 28.9383 59.243 18H-4.757C-4.757 11.9644 -2.35938 6.17612 1.90837 1.90837L47.1632 47.1632ZM59.243 18C59.243 7.06166 54.8978 -3.42866 47.1632 -11.1632L1.90837 34.0916C-2.35938 29.8239 -4.757 24.0356 -4.757 18H59.243ZM47.1632 -11.1632C39.4286 -18.8978 28.9383 -23.243 18 -23.243V40.757C11.9645 40.757 6.17613 38.3594 1.90837 34.0916L47.1632 -11.1632ZM18 -8C32.3581 -8 44 3.64189 44 18H-20C-20 38.9881 -2.98811 56 18 56V-8ZM44 18C44 32.3581 32.3581 44 18 44V-20C-2.98811 -20 -20 -2.98811 -20 18H44ZM18 44C3.64189 44 -8 32.3581 -8 18H56C56 -2.98811 38.9881 -20 18 -20V44ZM-8 18C-8 3.64189 3.64189 -8 18 -8V56C38.9881 56 56 38.9881 56 18H-8ZM-2.20879 7.20055C-1.92119 -0.5153 1.34618 -7.81928 6.90668 -13.1764L51.3107 32.9136C57.6768 26.7804 61.4175 18.4182 61.7468 9.58445L-2.20879 7.20055ZM6.90668 -13.1764C12.4672 -18.5335 19.8878 -21.5265 27.609 -21.5265V42.4735C36.4488 42.4735 44.9446 39.0468 51.3107 32.9136L6.90668 -13.1764ZM27.609 -21.5265C35.3302 -21.5265 42.7508 -18.5335 48.3113 -13.1764L3.90732 32.9136C10.2734 39.0468 18.7691 42.4735 27.609 42.4735L27.609 -21.5265ZM48.3113 -13.1764C53.8718 -7.81928 57.1392 -0.5153 57.4268 7.20055L-6.52879 9.58445C-6.19952 18.4182 -2.45878 26.7804 3.90732 32.9136L48.3113 -13.1764ZM57.449 8.3925C57.449 16.3066 54.3051 23.8965 48.7091 29.4926L3.45423 -15.7623C-2.952 -9.35603 -6.551 -0.667309 -6.551 8.3925L57.449 8.3925ZM48.7091 29.4926C43.113 35.0887 35.5231 38.2325 27.609 38.2325L27.609 -25.7675C18.5492 -25.7675 9.86048 -22.1685 3.45423 -15.7623L48.7091 29.4926ZM27.609 38.2325C19.6949 38.2325 12.105 35.0887 6.50893 29.4926L51.7638 -15.7623C45.3575 -22.1685 36.6688 -25.7675 27.609 -25.7675L27.609 38.2325ZM6.50893 29.4926C0.912858 23.8965 -2.231 16.3066 -2.231 8.3925L61.769 8.3925C61.769 -0.667309 58.17 -9.35603 51.7638 -15.7623L6.50893 29.4926Z" fill="#EA4235" mask="url(#path-1-inside-1_3424_150)"/>
</svg>
