<svg width="35" height="35" viewBox="0 0 35 35" fill="none" xmlns="http://www.w3.org/2000/svg">
<path d="M29.1358 29.1429H24.0715V21.2074C24.0715 19.3151 24.033 16.8798 21.4325 16.8798C18.7921 16.8798 18.3889 18.9389 18.3889 21.0677V29.1429H13.3246V12.8245H18.1894V15.0488H18.2549C18.9346 13.7663 20.5875 12.4127 23.057 12.4127C28.1882 12.4127 29.1372 15.7898 29.1372 20.1857V29.1429H29.1358ZM7.60491 10.5916C7.21857 10.5918 6.83599 10.5158 6.47907 10.3679C6.12214 10.2201 5.79788 10.0033 5.52483 9.72999C5.25178 9.45668 5.03532 9.1322 4.88782 8.77513C4.74032 8.41806 4.66469 8.03541 4.66525 7.64908C4.66554 7.06739 4.8383 6.49885 5.16171 6.01534C5.48511 5.53184 5.94463 5.1551 6.48215 4.93276C7.01966 4.71042 7.61104 4.65246 8.1815 4.76622C8.75196 4.87998 9.27587 5.16034 9.68699 5.57186C10.0981 5.98337 10.378 6.50756 10.4912 7.07813C10.6044 7.64869 10.5458 8.24002 10.323 8.77732C10.1001 9.31462 9.72293 9.77378 9.23912 10.0967C8.75531 10.4196 8.18659 10.5919 7.60491 10.5916ZM10.1441 29.1429H5.06566V12.8245H10.1441V29.1429ZM31.6693 0H2.52357C1.12855 0 0 1.1029 0 2.46372V31.7348C0 33.0971 1.12855 34.1986 2.52357 34.1986H31.665C33.0586 34.1986 34.1986 33.0971 34.1986 31.7348V2.46372C34.1986 1.1029 33.0586 0 31.665 0H31.6693Z" fill="#4286F5"/>
</svg>
