<svg width="135" height="198" viewBox="0 0 135 198" fill="none" xmlns="http://www.w3.org/2000/svg">
<path d="M135 136.874C135 147.325 132.363 157.25 127.09 166.647C121.816 175.956 113.599 183.509 102.437 189.305C91.3623 195.102 77.0361 198 59.458 198C50.6689 198 42.9346 197.605 36.2549 196.814C29.6631 196.024 23.5107 194.751 17.7979 192.994C12.085 191.15 6.15234 188.778 0 185.88V139.509C10.459 144.778 21.0059 148.818 31.6406 151.629C42.2754 154.351 51.8994 155.713 60.5127 155.713C65.6982 155.713 69.917 155.098 73.1689 153.868C76.5088 152.639 78.9697 150.97 80.5518 148.862C82.1338 146.667 82.9248 144.164 82.9248 141.353C82.9248 138.016 81.7383 135.206 79.3652 132.922C77.0801 130.551 73.3887 128.092 68.291 125.545C63.1934 122.998 56.4697 119.836 48.1201 116.06C41.001 112.723 34.541 109.297 28.7402 105.784C23.0273 102.271 18.1055 98.2755 13.9746 93.7964C9.93164 89.2295 6.81152 83.9162 4.61426 77.8563C2.41699 71.7964 1.31836 64.6387 1.31836 56.3832C1.31836 44 4.35059 33.6367 10.415 25.2934C16.5674 16.8623 25.0928 10.5389 35.9912 6.32335C46.9775 2.10778 59.6338 0 73.96 0C86.5283 0 97.8223 1.40519 107.842 4.21557C117.949 7.02595 127.002 10.2315 135 13.8323L119.048 54.012C110.786 50.2355 102.656 47.2495 94.6582 45.0539C86.6602 42.7705 79.2334 41.6287 72.3779 41.6287C67.8955 41.6287 64.2041 42.1996 61.3037 43.3413C58.4912 44.3952 56.3818 45.8443 54.9756 47.6886C53.6572 49.5329 52.998 51.6407 52.998 54.012C52.998 56.998 54.1406 59.6766 56.4258 62.0479C58.7988 64.4192 62.71 67.01 68.1592 69.8204C73.6963 72.5429 81.2109 76.0998 90.7031 80.491C100.107 84.7066 108.105 89.2735 114.697 94.1916C121.289 99.022 126.299 104.862 129.727 111.713C133.242 118.475 135 126.862 135 136.874Z" fill="#EA4235"/>
</svg>
