<svg width="47" height="47" viewBox="0 0 47 47" fill="none" xmlns="http://www.w3.org/2000/svg">
<path d="M43.6016 4.75477C43.044 4.29091 42.3711 3.9869 41.6545 3.87509C40.9378 3.76329 40.2043 3.84788 39.5319 4.11986L4.43683 18.2891C3.6863 18.5979 3.04743 19.1276 2.60501 19.808C2.16259 20.4884 1.93755 21.2872 1.95975 22.0985C1.98195 22.9098 2.25035 23.6951 2.72932 24.3503C3.20829 25.0054 3.87518 25.4994 4.64148 25.7667L11.7404 28.2357L15.6973 41.3205C15.751 41.4953 15.8291 41.6617 15.9291 41.8148C15.9443 41.8383 15.9657 41.8558 15.9818 41.8786C16.0973 42.0398 16.237 42.1824 16.3958 42.3012C16.441 42.3356 16.4843 42.3679 16.5326 42.3984C16.7185 42.5218 16.9244 42.612 17.1411 42.665L17.1643 42.667L17.1774 42.6726C17.3077 42.6991 17.4403 42.7125 17.5733 42.7127C17.5861 42.7127 17.5974 42.7066 17.6101 42.7064C17.8108 42.7029 18.0097 42.6683 18.1997 42.604C18.244 42.5889 18.2819 42.5637 18.3248 42.5455C18.4665 42.4868 18.6008 42.4115 18.7248 42.3212C18.8242 42.2375 18.9235 42.1538 19.0229 42.0701L24.3147 36.2277L32.2073 42.3417C32.9021 42.8827 33.7574 43.1767 34.638 43.1775C35.5607 43.1763 36.455 42.8579 37.1709 42.2757C37.8867 41.6936 38.3807 40.883 38.57 39.9798L44.9594 8.61407C45.1042 7.90813 45.0543 7.1761 44.8152 6.49631C44.576 5.81652 44.1565 5.21454 43.6016 4.75477ZM18.3498 28.8591C18.0783 29.1296 17.8927 29.4742 17.8162 29.8498L17.2101 32.7951L15.6747 27.717L23.6358 23.5713L18.3498 28.8591ZM34.6074 39.2455L25.2805 32.0203C24.8903 31.7188 24.4008 31.5753 23.9095 31.6186C23.4183 31.6618 22.9614 31.8886 22.6298 32.2536L20.9351 34.1242L21.534 31.2132L35.4049 17.3424C35.736 17.0117 35.9377 16.5734 35.9735 16.1069C36.0093 15.6404 35.8769 15.1764 35.6001 14.7991C35.3234 14.4218 34.9207 14.1561 34.4649 14.0501C34.0092 13.9441 33.5305 14.0048 33.1157 14.2213L13.2087 24.586L5.91516 21.917L41.123 7.83184L34.6074 39.2455Z" fill="#0092E4"/>
</svg>
