<svg width="47" height="47" viewBox="0 0 47 47" fill="none" xmlns="http://www.w3.org/2000/svg">
<path d="M33.9575 10.6928C33.4927 10.6928 33.0383 10.8307 32.6519 11.0889C32.2654 11.3471 31.9642 11.7141 31.7863 12.1435C31.6085 12.5729 31.5619 13.0454 31.6526 13.5013C31.7433 13.9571 31.9671 14.3759 32.2958 14.7045C32.6244 15.0332 33.0431 15.257 33.499 15.3477C33.9549 15.4383 34.4274 15.3918 34.8568 15.2139C35.2862 15.0361 35.6532 14.7349 35.9114 14.3484C36.1696 13.962 36.3075 13.5076 36.3075 13.0428C36.3075 12.4196 36.0599 11.8218 35.6192 11.3811C35.1784 10.9404 34.5807 10.6928 33.9575 10.6928ZM42.9658 15.432C42.9277 13.8072 42.6234 12.1996 42.065 10.6732C41.567 9.36729 40.792 8.18475 39.7933 7.20699C38.8236 6.2032 37.6383 5.43309 36.327 4.95491C34.8047 4.37947 33.1954 4.0682 31.5683 4.03449C29.4925 3.91699 28.8266 3.91699 23.5 3.91699C18.1733 3.91699 17.5075 3.91699 15.4316 4.03449C13.8046 4.0682 12.1952 4.37947 10.6729 4.95491C9.36408 5.43793 8.17979 6.20738 7.20663 7.20699C6.20284 8.17672 5.43272 9.36202 4.95454 10.6732C4.37911 12.1955 4.06783 13.8049 4.03413 15.432C3.91663 17.5078 3.91663 18.1737 3.91663 23.5003C3.91663 28.827 3.91663 29.4928 4.03413 31.5687C4.06783 33.1957 4.37911 34.8051 4.95454 36.3274C5.43272 37.6386 6.20284 38.8239 7.20663 39.7937C8.17979 40.7933 9.36408 41.5627 10.6729 42.0457C12.1952 42.6212 13.8046 42.9325 15.4316 42.9662C17.5075 43.0837 18.1733 43.0837 23.5 43.0837C28.8266 43.0837 29.4925 43.0837 31.5683 42.9662C33.1954 42.9325 34.8047 42.6212 36.327 42.0457C37.6383 41.5676 38.8236 40.7975 39.7933 39.7937C40.7964 38.8195 41.5721 37.636 42.065 36.3274C42.6234 34.8011 42.9277 33.1935 42.9658 31.5687C42.9658 29.4928 43.0833 28.827 43.0833 23.5003C43.0833 18.1737 43.0833 17.5078 42.9658 15.432ZM39.4408 31.3337C39.4265 32.5768 39.2014 33.8084 38.775 34.9762C38.4623 35.8284 37.9601 36.5985 37.3062 37.2282C36.671 37.8755 35.9025 38.3767 35.0541 38.697C33.8864 39.1234 32.6547 39.3486 31.4116 39.3628C29.4533 39.4607 28.7287 39.4803 23.5783 39.4803C18.4279 39.4803 17.7033 39.4803 15.745 39.3628C14.4542 39.387 13.169 39.1882 11.9458 38.7753C11.1346 38.4386 10.4014 37.9387 9.79163 37.3066C9.14163 36.6775 8.64569 35.9067 8.34246 35.0545C7.86434 33.87 7.59916 32.6104 7.55913 31.3337C7.55913 29.3753 7.44163 28.6507 7.44163 23.5003C7.44163 18.3499 7.44163 17.6253 7.55913 15.667C7.5679 14.3961 7.7999 13.1367 8.24454 11.9462C8.5893 11.1196 9.11848 10.3827 9.79163 9.79199C10.3866 9.11866 11.1219 8.58389 11.9458 8.22533C13.1395 7.79458 14.3976 7.56944 15.6666 7.55949C17.625 7.55949 18.3495 7.44199 23.5 7.44199C28.6504 7.44199 29.375 7.44199 31.3333 7.55949C32.5764 7.57375 33.808 7.79889 34.9758 8.22533C35.8657 8.5556 36.6645 9.09257 37.3062 9.79199C37.948 10.3935 38.4494 11.129 38.775 11.9462C39.2102 13.1387 39.4355 14.3976 39.4408 15.667C39.5387 17.6253 39.5583 18.3499 39.5583 23.5003C39.5583 28.6507 39.5387 29.3753 39.4408 31.3337ZM23.5 13.4541C21.5138 13.4579 19.5734 14.0504 17.9239 15.1567C16.2744 16.2629 14.9898 17.8333 14.2324 19.6693C13.475 21.5054 13.2789 23.5247 13.6687 25.4722C14.0586 27.4197 15.0169 29.208 16.4227 30.611C17.8285 32.014 19.6186 32.9689 21.5668 33.3549C23.5151 33.741 25.534 33.5409 27.3686 32.78C29.2032 32.019 30.771 30.7314 31.874 29.0797C32.9771 27.428 33.5658 25.4865 33.5658 23.5003C33.5684 22.1787 33.3097 20.8695 32.8045 19.6482C32.2993 18.4269 31.5576 17.3175 30.6222 16.3838C29.6867 15.4502 28.5759 14.7107 27.3536 14.2079C26.1313 13.7051 24.8216 13.4489 23.5 13.4541ZM23.5 30.0216C22.2102 30.0216 20.9494 29.6391 19.8769 28.9225C18.8045 28.206 17.9687 27.1875 17.4751 25.9959C16.9815 24.8043 16.8524 23.4931 17.104 22.2281C17.3556 20.9631 17.9767 19.8011 18.8887 18.8891C19.8008 17.9771 20.9627 17.356 22.2277 17.1044C23.4927 16.8528 24.8039 16.9819 25.9955 17.4755C27.1871 17.9691 28.2056 18.8049 28.9222 19.8773C29.6387 20.9497 30.0212 22.2105 30.0212 23.5003C30.0212 24.3567 29.8525 25.2047 29.5248 25.9959C29.1971 26.7871 28.7167 27.506 28.1112 28.1115C27.5056 28.7171 26.7867 29.1975 25.9955 29.5252C25.2043 29.8529 24.3563 30.0216 23.5 30.0216Z" fill="#FABD03"/>
</svg>
