<svg width="47" height="47" viewBox="0 0 47 47" fill="none" xmlns="http://www.w3.org/2000/svg">
<path d="M37.2083 7.83301H9.79163C8.23348 7.83301 6.73915 8.45198 5.63737 9.55376C4.5356 10.6555 3.91663 12.1499 3.91663 13.708V33.2913C3.91663 34.8495 4.5356 36.3438 5.63737 37.4456C6.73915 38.5474 8.23348 39.1663 9.79163 39.1663H37.2083C38.7664 39.1663 40.2608 38.5474 41.3625 37.4456C42.4643 36.3438 43.0833 34.8495 43.0833 33.2913V13.708C43.0833 12.1499 42.4643 10.6555 41.3625 9.55376C40.2608 8.45198 38.7664 7.83301 37.2083 7.83301ZM36.4054 11.7497L24.8904 23.2647C24.7083 23.4482 24.4917 23.5939 24.2531 23.6933C24.0144 23.7928 23.7585 23.8439 23.5 23.8439C23.2414 23.8439 22.9855 23.7928 22.7468 23.6933C22.5082 23.5939 22.2916 23.4482 22.1095 23.2647L10.5945 11.7497H36.4054ZM39.1666 33.2913C39.1666 33.8107 38.9603 34.3088 38.593 34.6761C38.2258 35.0434 37.7277 35.2497 37.2083 35.2497H9.79163C9.27224 35.2497 8.77413 35.0434 8.40688 34.6761C8.03962 34.3088 7.83329 33.8107 7.83329 33.2913V14.5109L19.3483 26.0259C20.4499 27.1261 21.9431 27.7441 23.5 27.7441C25.0568 27.7441 26.5501 27.1261 27.6516 26.0259L39.1666 14.5109V33.2913Z" fill="#EA4235"/>
</svg>
