<svg width="279" height="239" viewBox="0 0 279 239" fill="none" xmlns="http://www.w3.org/2000/svg">
<path d="M39.6181 11H240.5L240.224 238.246H38.7078L39.6181 11Z" fill="#109D58"/>
<mask id="mask0_5374_1540" style="mask-type:alpha" maskUnits="userSpaceOnUse" x="239" y="0" width="40" height="239">
<rect width="39.7077" height="238.246" transform="matrix(-1 0 0 1 278.932 0)" fill="#109D58"/>
</mask>
<g mask="url(#mask0_5374_1540)">
<path d="M199.186 39.2113C199.186 55.5674 213.408 68.8266 230.952 68.8266C248.496 68.8266 262.718 55.5674 262.718 39.2113C262.718 22.8552 257.044 11 239.5 11C221.956 11 199.186 22.8552 199.186 39.2113Z" fill="#109D58"/>
<ellipse cx="31.7662" cy="28.9535" rx="31.7662" ry="28.9535" transform="matrix(-1 0 0 1 263.38 65.8485)" fill="#109D58"/>
<ellipse cx="31.7662" cy="29.9462" rx="31.7662" ry="29.9462" transform="matrix(-1 0 0 1 263.38 121.77)" fill="#109D58"/>
<path d="M199.848 210.782C199.848 228.326 227.956 238.5 245.5 238.5C263.044 238.5 263.38 228.326 263.38 210.782C263.38 193.238 249.158 179.016 231.614 179.016C214.07 179.016 199.848 193.238 199.848 210.782Z" fill="#109D58"/>
<ellipse cx="31.7662" cy="28.9535" rx="31.7662" ry="28.9535" transform="matrix(-1 0 0 1 263.38 235.268)" fill="#109D58"/>
</g>
<mask id="mask1_5374_1540" style="mask-type:alpha" maskUnits="userSpaceOnUse" x="0" y="0" width="40" height="239">
<rect width="39.7077" height="238.246" fill="#109D58"/>
</mask>
<g mask="url(#mask1_5374_1540)">
<path d="M79.7662 38.8847C79.7662 55.2408 65.544 68.5 48 68.5C30.4561 68.5 16.2339 55.2408 16.2339 38.8847C16.2339 22.5286 22.456 11 40 11C57.544 11 79.7662 22.5286 79.7662 38.8847Z" fill="#109D58"/>
<ellipse cx="47.3182" cy="94.802" rx="31.7662" ry="28.9535" fill="#109D58"/>
<ellipse cx="47.3182" cy="151.716" rx="31.7662" ry="29.9462" fill="#109D58"/>
<path d="M79.0843 210.782C79.0843 228.326 55.044 238.5 37.5 238.5C19.956 238.5 15.552 228.326 15.552 210.782C15.552 193.238 29.7742 179.016 47.3182 179.016C64.8621 179.016 79.0843 193.238 79.0843 210.782Z" fill="#109D58"/>
<ellipse cx="47.3182" cy="264.222" rx="31.7662" ry="28.9535" fill="#109D58"/>
</g>
<path d="M37 11.114L44 11V39H37V11.114Z" fill="#109D58"/>
</svg>
