<svg width="414" height="45" viewBox="0 0 414 45" fill="none" xmlns="http://www.w3.org/2000/svg">
<path d="M64.7353 16.4713C63.2763 15.748 62.1605 14.6228 61.3881 13.3368C60.5298 11.9705 60.1865 10.5238 60.1865 8.91637C60.1865 7.30893 60.6157 5.86223 61.3881 4.49591C62.2463 3.12958 63.3621 2.08474 64.7353 1.36139C66.1943 0.638045 67.7392 0.236183 69.3699 0.236183C70.6573 0.236183 71.9447 0.477302 73.0604 0.879162C74.1761 1.28102 75.1202 1.924 75.8927 2.72772L74.3478 4.17442C73.747 3.53144 73.0604 3.04921 72.2021 2.64735C71.3439 2.32586 70.3998 2.08474 69.3699 2.08474C68.1683 2.08474 66.9668 2.40623 65.851 2.96884C64.7353 3.53144 63.877 4.33516 63.2763 5.38C62.5897 6.42483 62.3322 7.63042 62.3322 8.91637C62.3322 10.2827 62.6755 11.4883 63.2763 12.4527C63.9629 13.4976 64.8211 14.3013 65.851 14.8639C66.9668 15.4265 68.0825 15.748 69.3699 15.748C70.5715 15.748 71.6014 15.5872 72.3738 15.1854C73.1462 14.7835 73.9187 14.3817 74.4336 13.8191C74.8627 13.4172 75.206 12.8546 75.4635 12.2116C75.721 11.5686 75.8927 10.9257 75.9785 10.2023H69.3699V8.35376H77.9525C78.0383 8.75562 78.0383 9.15749 78.0383 9.55935C78.0383 10.6042 77.8666 11.5686 77.5233 12.5331C77.18 13.4976 76.5793 14.3817 75.8927 15.105C74.1761 16.7928 72.0305 17.5965 69.3699 17.5965C67.6534 17.6769 66.1085 17.2751 64.7353 16.4713Z" fill="#676C72"/>
<path d="M82.7592 16.8734C81.8151 16.3108 81.0426 15.5875 80.5277 14.623C80.0127 13.6585 79.7552 12.6137 79.7552 11.4885C79.7552 10.3633 80.0127 9.31844 80.5277 8.35397C81.0426 7.38951 81.8151 6.66616 82.7592 6.10356C83.7032 5.54095 84.819 5.29984 86.0205 5.29984C87.2221 5.29984 88.3378 5.54095 89.2819 6.10356C90.226 6.66616 90.9984 7.38951 91.5134 8.35397C92.0283 9.31844 92.2858 10.3633 92.2858 11.4885C92.2858 12.6137 92.0283 13.6585 91.5134 14.623C90.9984 15.5875 90.226 16.3108 89.2819 16.8734C88.3378 17.436 87.2221 17.6771 86.0205 17.6771C84.819 17.6771 83.7032 17.3556 82.7592 16.8734ZM88.0803 15.3463C88.767 15.0249 89.2819 14.4623 89.6252 13.8193C90.0543 13.1763 90.226 12.3726 90.226 11.4885C90.226 10.6044 90.0543 9.88104 89.6252 9.15769C89.1961 8.51472 88.6811 7.95211 88.0803 7.63062C87.3937 7.30914 86.7071 7.06802 86.0205 7.06802C85.2481 7.06802 84.5615 7.22876 83.9607 7.63062C83.2741 7.95211 82.7592 8.51472 82.4159 9.15769C81.9867 9.80067 81.8151 10.6044 81.8151 11.4885C81.8151 12.3726 81.9867 13.0959 82.4159 13.8193C82.845 14.4623 83.3599 15.0249 83.9607 15.3463C84.6473 15.6678 85.3339 15.9089 86.0205 15.9089C86.7071 15.8286 87.3937 15.6678 88.0803 15.3463Z" fill="#676C72"/>
<path d="M96.8342 16.8734C95.8901 16.3108 95.1177 15.5875 94.6028 14.623C94.0878 13.6585 93.8303 12.6137 93.8303 11.4885C93.8303 10.3633 94.0878 9.31844 94.6028 8.35397C95.1177 7.38951 95.8901 6.66616 96.8342 6.10356C97.7783 5.54095 98.894 5.29984 100.096 5.29984C101.297 5.29984 102.413 5.54095 103.357 6.10356C104.301 6.66616 105.074 7.38951 105.588 8.35397C106.103 9.31844 106.361 10.3633 106.361 11.4885C106.361 12.6137 106.103 13.6585 105.588 14.623C105.074 15.5875 104.301 16.3108 103.357 16.8734C102.413 17.436 101.297 17.6771 100.096 17.6771C98.894 17.6771 97.7783 17.3556 96.8342 16.8734ZM102.155 15.3463C102.842 15.0249 103.357 14.4623 103.7 13.8193C104.129 13.1763 104.301 12.3726 104.301 11.4885C104.301 10.6044 104.129 9.88104 103.7 9.15769C103.271 8.51472 102.756 7.95211 102.155 7.63062C101.469 7.30914 100.782 7.06802 100.096 7.06802C99.3232 7.06802 98.6366 7.22876 98.0358 7.63062C97.3492 7.95211 96.8342 8.51472 96.4909 9.15769C96.0618 9.80067 95.8901 10.6044 95.8901 11.4885C95.8901 12.3726 96.0618 13.0959 96.4909 13.8193C96.9201 14.4623 97.435 15.0249 98.0358 15.3463C98.7224 15.6678 99.409 15.9089 100.096 15.9089C100.868 15.8286 101.555 15.6678 102.155 15.3463Z" fill="#676C72"/>
<path d="M110.309 21.6952C109.365 21.0522 108.765 20.2485 108.421 19.3644L110.395 18.5607C110.653 19.284 111.082 19.7663 111.769 20.2485C112.369 20.6504 113.142 20.8915 114.086 20.8915C115.373 20.8915 116.403 20.57 117.09 19.8467C117.776 19.1233 118.12 18.1588 118.12 16.8729V15.6673H118.034C117.605 16.2299 117.09 16.7121 116.317 17.114C115.545 17.5159 114.687 17.6766 113.743 17.6766C112.713 17.6766 111.769 17.4355 110.824 16.8729C109.966 16.3103 109.194 15.5869 108.679 14.7028C108.164 13.7384 107.906 12.6935 107.906 11.5683C107.906 10.4431 108.164 9.31791 108.679 8.43381C109.194 7.46935 109.88 6.746 110.824 6.26377C111.683 5.70116 112.713 5.46004 113.743 5.46004C114.687 5.46004 115.545 5.62079 116.317 6.02265C117.09 6.42451 117.605 6.90674 118.034 7.46935H118.12V5.78153H120.094V16.8729C120.094 18.1588 119.836 19.2037 119.321 20.0878C118.806 20.9719 118.034 21.6148 117.176 22.0971C116.231 22.4989 115.202 22.74 114.086 22.74C112.541 22.6597 111.254 22.3382 110.309 21.6952ZM116.06 15.3458C116.661 15.0243 117.176 14.4617 117.519 13.8187C117.862 13.1758 118.12 12.372 118.12 11.488C118.12 10.6039 117.948 9.80014 117.519 9.15716C117.09 8.51419 116.661 7.95158 116.06 7.63009C115.459 7.3086 114.772 7.14786 114.086 7.14786C113.399 7.14786 112.713 7.30861 112.112 7.71047C111.511 8.03195 110.996 8.59456 110.653 9.23753C110.309 9.88051 110.052 10.6842 110.052 11.5683C110.052 12.4524 110.224 13.2561 110.653 13.8991C110.996 14.5421 111.511 15.0243 112.112 15.4262C112.713 15.7477 113.399 15.9888 114.086 15.9888C114.772 15.9888 115.459 15.6673 116.06 15.3458Z" fill="#676C72"/>
<path d="M122.926 0.557583H125.071V17.275H122.926V0.557583Z" fill="#676C72"/>
<path d="M130.049 16.8729C129.105 16.3103 128.418 15.5869 127.817 14.7028C127.302 13.7384 127.045 12.6935 127.045 11.5683C127.045 10.4431 127.302 9.39828 127.817 8.51419C128.332 7.54972 129.019 6.82637 129.963 6.26377C130.907 5.70116 131.937 5.46004 133.138 5.46004C134.34 5.46004 135.37 5.70116 136.314 6.18339C137.258 6.66563 137.945 7.38898 138.374 8.35344C138.889 9.23753 139.06 10.3627 139.06 11.488C139.06 11.7291 139.06 11.8898 138.975 11.9702H129.19C129.19 12.8543 129.448 13.5776 129.877 14.1402C130.306 14.7028 130.821 15.1851 131.422 15.5066C132.023 15.828 132.709 15.9888 133.31 15.9888C134.855 15.9888 136.057 15.2654 136.915 13.8187L138.803 14.6225C138.288 15.5869 137.516 16.3103 136.571 16.8729C135.627 17.4355 134.512 17.757 133.224 17.757C132.109 17.6766 130.993 17.3551 130.049 16.8729ZM136.829 10.202C136.829 9.71977 136.657 9.23753 136.4 8.83567C136.142 8.43381 135.713 7.95158 135.198 7.63009C134.683 7.3086 133.911 7.14786 133.053 7.14786C132.109 7.14786 131.336 7.38898 130.649 7.95158C129.963 8.51419 129.534 9.23753 129.362 10.202H136.829Z" fill="#676C72"/>
<path d="M147.129 0.557583H152.536C154.338 0.557583 155.969 0.879071 157.342 1.60242C158.715 2.32577 159.745 3.29023 160.517 4.57619C161.29 5.86214 161.633 7.30884 161.633 8.91628C161.633 10.5237 161.29 11.9704 160.517 13.2564C159.745 14.5423 158.715 15.5068 157.342 16.2301C155.969 16.9535 154.424 17.275 152.536 17.275H147.129V0.557583ZM152.536 15.4264C154.681 15.4264 156.312 14.8638 157.513 13.7386C158.715 12.6134 159.316 11.006 159.316 8.99665C159.316 6.98735 158.715 5.37991 157.513 4.2547C156.312 3.12949 154.595 2.56689 152.536 2.56689H149.274V15.5068H152.536V15.4264Z" fill="#676C72"/>
<path d="M166.354 16.8729C165.409 16.3103 164.723 15.5869 164.122 14.7028C163.607 13.7384 163.35 12.6935 163.35 11.5683C163.35 10.4431 163.607 9.39828 164.122 8.51419C164.637 7.54972 165.324 6.82637 166.268 6.26377C167.212 5.70116 168.242 5.46004 169.443 5.46004C170.645 5.46004 171.675 5.70116 172.619 6.18339C173.563 6.66563 174.249 7.38898 174.679 8.35344C175.194 9.23753 175.365 10.3627 175.365 11.488C175.365 11.7291 175.365 11.8898 175.279 11.9702H165.495C165.495 12.8543 165.753 13.5776 166.182 14.1402C166.611 14.7028 167.126 15.1851 167.727 15.5066C168.328 15.828 169.014 15.9888 169.615 15.9888C171.16 15.9888 172.361 15.2654 173.22 13.8187L175.108 14.6225C174.593 15.5869 173.82 16.3103 172.876 16.8729C171.932 17.4355 170.816 17.757 169.529 17.757C168.328 17.6766 167.298 17.3551 166.354 16.8729ZM173.134 10.202C173.134 9.71977 172.962 9.23753 172.705 8.83567C172.447 8.43381 172.018 7.95158 171.503 7.63009C170.988 7.3086 170.216 7.14786 169.357 7.14786C168.413 7.14786 167.641 7.38898 166.954 7.95158C166.268 8.51419 165.839 9.23753 165.667 10.202H173.134Z" fill="#676C72"/>
<path d="M175.794 5.70216H178.111L181.887 14.945H181.973L185.835 5.70216H188.067L183.003 17.2757H180.858L175.794 5.70216Z" fill="#676C72"/>
<path d="M191.843 16.8729C190.899 16.3103 190.212 15.5869 189.612 14.7028C189.097 13.7384 188.839 12.6935 188.839 11.5683C188.839 10.4431 189.097 9.39828 189.612 8.51419C190.126 7.54972 190.813 6.82637 191.757 6.26377C192.701 5.70116 193.731 5.46004 194.933 5.46004C196.134 5.46004 197.164 5.70116 198.108 6.18339C199.052 6.66563 199.739 7.38898 200.168 8.35344C200.683 9.23753 200.855 10.3627 200.855 11.488C200.855 11.7291 200.855 11.8898 200.769 11.9702H190.985C190.985 12.8543 191.242 13.5776 191.671 14.1402C192.1 14.7028 192.615 15.1851 193.216 15.5066C193.817 15.828 194.504 15.9888 195.104 15.9888C196.649 15.9888 197.851 15.2654 198.709 13.8187L200.597 14.6225C200.082 15.5869 199.31 16.3103 198.366 16.8729C197.422 17.4355 196.306 17.757 195.019 17.757C193.903 17.6766 192.787 17.3551 191.843 16.8729ZM198.623 10.202C198.623 9.71977 198.452 9.23753 198.194 8.83567C197.937 8.43381 197.508 7.95158 196.993 7.63009C196.478 7.3086 195.705 7.14786 194.847 7.14786C193.903 7.14786 193.13 7.38898 192.444 7.95158C191.757 8.51419 191.328 9.23753 191.156 10.202H198.623Z" fill="#676C72"/>
<path d="M203.001 0.557583H205.147V17.275H203.001V0.557583Z" fill="#676C72"/>
<path d="M210.21 16.8734C209.266 16.3108 208.494 15.5875 207.979 14.623C207.464 13.6585 207.206 12.6137 207.206 11.4885C207.206 10.3633 207.464 9.31844 207.979 8.35397C208.494 7.38951 209.266 6.66616 210.21 6.10356C211.154 5.54095 212.27 5.29984 213.472 5.29984C214.673 5.29984 215.789 5.54095 216.733 6.10356C217.677 6.66616 218.449 7.38951 218.964 8.35397C219.479 9.31844 219.737 10.3633 219.737 11.4885C219.737 12.6137 219.479 13.6585 218.964 14.623C218.449 15.5875 217.677 16.3108 216.733 16.8734C215.789 17.436 214.673 17.6771 213.472 17.6771C212.27 17.6771 211.154 17.3556 210.21 16.8734ZM215.531 15.3463C216.218 15.0249 216.733 14.4623 217.076 13.8193C217.505 13.1763 217.677 12.3726 217.677 11.4885C217.677 10.6044 217.505 9.88104 217.076 9.15769C216.647 8.51472 216.132 7.95211 215.531 7.63062C214.845 7.30914 214.158 7.06802 213.472 7.06802C212.699 7.06802 212.013 7.22876 211.412 7.63062C210.725 7.95211 210.21 8.51472 209.867 9.15769C209.438 9.80067 209.266 10.6044 209.266 11.4885C209.266 12.3726 209.438 13.0959 209.867 13.8193C210.296 14.4623 210.811 15.0249 211.412 15.3463C212.098 15.6678 212.785 15.9089 213.472 15.9089C214.244 15.8286 214.931 15.6678 215.531 15.3463Z" fill="#676C72"/>
<path d="M221.711 5.70143H223.685V7.38925H223.771C224.2 6.82664 224.715 6.34441 225.488 5.94255C226.26 5.54069 227.118 5.37994 228.062 5.37994C229.092 5.37994 230.122 5.62106 230.98 6.18366C231.839 6.74627 232.611 7.46962 233.126 8.35371C233.641 9.31818 233.898 10.363 233.898 11.4882C233.898 12.6134 233.641 13.7386 233.126 14.6227C232.611 15.5872 231.924 16.3105 230.98 16.7928C230.122 17.3554 229.092 17.5965 228.062 17.5965C227.118 17.5965 226.26 17.4358 225.488 17.0339C224.715 16.632 224.2 16.1498 223.771 15.5068H223.685L223.771 17.1143V22.2581H221.625V5.70143H221.711ZM229.865 15.3461C230.465 15.0246 230.98 14.462 231.324 13.819C231.667 13.176 231.924 12.3723 231.924 11.4882C231.924 10.6041 231.753 9.88078 231.324 9.15743C230.98 8.51446 230.465 7.95185 229.865 7.63036C229.264 7.30887 228.577 7.06776 227.805 7.06776C227.032 7.06776 226.432 7.2285 225.745 7.63036C225.144 7.95185 224.629 8.51446 224.286 9.15743C223.943 9.80041 223.685 10.6041 223.685 11.4882C223.685 12.3723 223.857 13.0957 224.286 13.819C224.629 14.462 225.144 15.0246 225.745 15.3461C226.346 15.6676 227.032 15.9087 227.805 15.9087C228.577 15.9087 229.264 15.6676 229.865 15.3461Z" fill="#676C72"/>
<path d="M238.961 16.8729C238.017 16.3103 237.33 15.5869 236.73 14.7028C236.215 13.7384 235.957 12.6935 235.957 11.5683C235.957 10.4431 236.215 9.39828 236.73 8.51419C237.245 7.54972 237.931 6.82637 238.875 6.26377C239.819 5.70116 240.849 5.46004 242.051 5.46004C243.252 5.46004 244.282 5.70116 245.226 6.18339C246.171 6.66563 246.857 7.38898 247.286 8.35344C247.801 9.23753 247.973 10.3627 247.973 11.488C247.973 11.7291 247.973 11.8898 247.887 11.9702H238.103C238.103 12.8543 238.36 13.5776 238.79 14.1402C239.219 14.7028 239.734 15.1851 240.334 15.5066C240.935 15.828 241.622 15.9888 242.223 15.9888C243.767 15.9888 244.969 15.2654 245.827 13.8187L247.715 14.6225C247.2 15.5869 246.428 16.3103 245.484 16.8729C244.54 17.4355 243.424 17.757 242.137 17.757C240.935 17.6766 239.905 17.3551 238.961 16.8729ZM245.741 10.202C245.741 9.71977 245.57 9.23753 245.312 8.83567C245.055 8.43381 244.626 7.95158 244.111 7.63009C243.596 7.3086 242.823 7.14786 241.965 7.14786C241.021 7.14786 240.249 7.38898 239.562 7.95158C238.875 8.51419 238.446 9.23753 238.275 10.202H245.741Z" fill="#676C72"/>
<path d="M250.119 5.7017H252.093V7.55025H252.179C252.437 6.90728 252.866 6.34467 253.638 5.94281C254.325 5.54095 255.097 5.29984 255.784 5.29984C256.299 5.29984 256.814 5.38021 257.243 5.54095V7.63062C256.814 7.38951 256.213 7.30914 255.526 7.30914C254.926 7.30914 254.411 7.46988 253.896 7.79137C253.381 8.11286 252.952 8.51472 252.694 9.07732C252.437 9.63993 252.265 10.2025 252.265 10.7651V17.1949H250.119V5.7017Z" fill="#676C72"/>
<path d="M266.512 17.1142C265.653 16.7927 264.967 16.2301 264.28 15.5872C263.679 14.9442 263.164 14.0601 262.907 13.0956L264.881 12.2919C265.138 13.2564 265.653 14.1405 266.426 14.7031C267.198 15.346 268.057 15.6675 269.086 15.6675C270.116 15.6675 270.975 15.4264 271.747 14.8638C272.434 14.3816 272.777 13.6582 272.777 12.6938C272.777 11.89 272.434 11.2471 271.833 10.7648C271.232 10.2826 270.202 9.80037 268.829 9.31814L267.713 8.91628C266.426 8.51442 265.396 7.95181 264.623 7.22846C263.851 6.50511 263.422 5.62102 263.422 4.41544C263.422 3.61172 263.679 2.88837 264.109 2.24539C264.538 1.60241 265.224 1.03981 265.997 0.637948C266.769 0.236088 267.713 -0.00502777 268.743 -0.00502777C269.773 -0.00502777 270.631 0.155717 271.404 0.557577C272.176 0.879066 272.777 1.3613 273.206 1.84353C273.635 2.32576 273.979 2.88837 274.15 3.3706L272.176 4.17432C272.005 3.61172 271.575 3.04911 271.06 2.56688C270.46 2.08465 269.687 1.84353 268.743 1.84353C267.799 1.84353 267.027 2.08465 266.426 2.56688C265.739 3.04911 265.482 3.69209 265.482 4.41544C265.482 5.05841 265.739 5.62102 266.34 6.02288C266.855 6.42474 267.713 6.8266 268.829 7.14809L269.945 7.54995C271.49 8.03218 272.605 8.67516 273.464 9.47888C274.322 10.2826 274.751 11.3274 274.751 12.6134C274.751 13.6582 274.493 14.6227 273.893 15.346C273.292 16.0694 272.519 16.632 271.661 16.9535C270.803 17.275 269.859 17.4357 268.915 17.4357C268.228 17.6768 267.284 17.4357 266.512 17.1142Z" fill="#676C72"/>
<path d="M280.072 17.4359C279.643 17.2752 279.3 17.0341 278.956 16.7929C278.613 16.4715 278.356 16.15 278.184 15.7481C278.012 15.3463 277.927 14.864 277.927 14.3014V7.55016H275.695V5.78197H277.927V2.32597H279.986V5.78197H282.99V7.55016H279.986V13.8192C279.986 14.4622 280.158 14.9444 280.415 15.2659C280.673 15.5874 281.102 15.8285 281.703 15.8285C282.218 15.8285 282.647 15.7481 283.076 15.507V17.4359C282.819 17.5163 282.561 17.5967 282.304 17.5967C282.046 17.5967 281.703 17.677 281.36 17.677C281.016 17.677 280.501 17.5967 280.072 17.4359Z" fill="#676C72"/>
<path d="M286.509 16.3916C285.737 15.5879 285.308 14.4627 285.308 12.9357V5.70216H287.454V12.6142C287.454 14.7038 288.483 15.829 290.543 15.829C291.23 15.829 291.831 15.6683 292.346 15.2664C292.861 14.945 293.29 14.4627 293.547 13.9001C293.805 13.3375 293.976 12.6945 293.976 12.0516V5.70216H296.036V17.2757H294.062V15.5879H293.976C293.633 16.1505 293.032 16.7131 292.346 17.115C291.573 17.5169 290.801 17.758 289.942 17.758C288.398 17.6776 287.282 17.2757 286.509 16.3916Z" fill="#676C72"/>
<path d="M301.014 16.8731C300.156 16.3105 299.384 15.5872 298.869 14.7031C298.354 13.7386 298.096 12.6938 298.096 11.5686C298.096 10.4433 298.354 9.31814 298.869 8.43405C299.384 7.46958 300.07 6.74623 301.014 6.264C301.873 5.70139 302.902 5.46028 303.932 5.46028C304.876 5.46028 305.735 5.62102 306.507 6.02288C307.28 6.42474 307.88 6.90698 308.224 7.46958H308.309L308.224 5.86214V0.557583H310.283V17.275H308.309V15.5872H308.224C307.88 16.2301 307.28 16.7124 306.507 17.1142C305.735 17.5161 304.876 17.6768 303.932 17.6768C302.902 17.6768 301.958 17.3553 301.014 16.8731ZM306.335 15.346C306.936 15.0246 307.451 14.462 307.795 13.819C308.138 13.176 308.395 12.3723 308.395 11.4882C308.395 10.6041 308.224 9.80037 307.795 9.1574C307.451 8.51442 306.936 8.03219 306.335 7.63032C305.735 7.30884 305.048 7.06772 304.276 7.06772C303.503 7.06772 302.902 7.22846 302.216 7.63032C301.529 8.03219 301.1 8.51442 300.757 9.1574C300.413 9.80037 300.156 10.6041 300.156 11.4882C300.156 12.3723 300.328 13.0956 300.757 13.819C301.1 14.462 301.615 15.0246 302.216 15.346C302.817 15.6675 303.503 15.9086 304.276 15.9086C305.048 15.9086 305.735 15.6675 306.335 15.346Z" fill="#676C72"/>
<path d="M315.432 16.8729C314.488 16.3103 313.801 15.5869 313.201 14.7028C312.686 13.7384 312.428 12.6935 312.428 11.5683C312.428 10.4431 312.686 9.39828 313.201 8.51419C313.716 7.54972 314.402 6.82637 315.346 6.26377C316.29 5.70116 317.32 5.46004 318.522 5.46004C319.723 5.46004 320.753 5.70116 321.697 6.18339C322.641 6.66563 323.328 7.38898 323.757 8.35344C324.272 9.23753 324.444 10.3627 324.444 11.488C324.444 11.7291 324.444 11.8898 324.358 11.9702H314.574C314.574 12.8543 314.831 13.5776 315.26 14.1402C315.69 14.7028 316.205 15.1851 316.805 15.5066C317.406 15.828 318.093 15.9888 318.693 15.9888C320.238 15.9888 321.44 15.2654 322.298 13.8187L324.186 14.6225C323.671 15.5869 322.899 16.3103 321.955 16.8729C321.011 17.4355 319.895 17.757 318.608 17.757C317.406 17.6766 316.376 17.3551 315.432 16.8729ZM322.127 10.202C322.127 9.71977 321.955 9.23753 321.697 8.83567C321.44 8.43381 321.011 7.95158 320.496 7.63009C319.981 7.3086 319.208 7.14786 318.35 7.14786C317.406 7.14786 316.634 7.38898 315.947 7.95158C315.26 8.51419 314.831 9.23753 314.66 10.202H322.127Z" fill="#676C72"/>
<path d="M326.504 5.70144H328.478V7.38925H328.564C328.907 6.82665 329.422 6.26404 330.195 5.86218C330.967 5.46032 331.74 5.21921 332.598 5.21921C334.143 5.21921 335.258 5.62107 336.031 6.42479C336.803 7.22851 337.232 8.35372 337.232 9.80042V17.1143H335.173V10.1219C335.173 8.03223 334.143 6.98739 332.083 6.98739C331.396 6.98739 330.795 7.14814 330.28 7.55C329.766 7.87149 329.336 8.35372 329.079 8.91633C328.821 9.47893 328.65 10.1219 328.65 10.7649V17.1143H326.504V5.70144Z" fill="#676C72"/>
<path d="M342.811 17.4359C342.382 17.2752 342.039 17.0341 341.695 16.7929C341.352 16.4715 341.095 16.15 340.923 15.7481C340.751 15.3463 340.666 14.864 340.666 14.3014V7.55016H338.434V5.78197H340.666V2.32597H342.725V5.78197H345.729V7.55016H342.725V13.8192C342.725 14.4622 342.897 14.9444 343.155 15.2659C343.412 15.5874 343.841 15.8285 344.442 15.8285C344.957 15.8285 345.386 15.7481 345.815 15.507V17.4359C345.558 17.5163 345.3 17.5967 345.043 17.5967C344.785 17.5967 344.442 17.677 344.099 17.677C343.669 17.677 343.24 17.5967 342.811 17.4359Z" fill="#676C72"/>
<path d="M357.23 16.4713C355.857 15.748 354.741 14.6228 353.883 13.3368C353.11 11.9705 352.681 10.5238 352.681 8.91637C352.681 7.30893 353.11 5.86223 353.883 4.49591C354.655 3.12958 355.771 2.08474 357.23 1.36139C358.603 0.638045 360.234 0.236183 361.865 0.236183C363.238 0.236183 364.439 0.477301 365.555 0.959533C366.671 1.44177 367.615 2.08474 368.387 2.96884L366.928 4.33516C366.242 3.61181 365.555 3.04921 364.697 2.64735C363.839 2.32586 362.98 2.08474 361.865 2.08474C360.577 2.08474 359.376 2.40623 358.346 2.96884C357.23 3.53144 356.372 4.33516 355.771 5.38C355.17 6.42483 354.827 7.63042 354.827 8.91637C354.827 10.2827 355.17 11.4883 355.771 12.4527C356.372 13.4976 357.23 14.3013 358.346 14.8639C359.461 15.4265 360.577 15.748 361.865 15.748C364.01 15.748 365.898 14.9443 367.357 13.2565L368.902 14.6228C368.13 15.5069 367.1 16.2302 365.898 16.7928C364.697 17.3554 363.324 17.5965 361.865 17.5965C360.148 17.6769 358.603 17.2751 357.23 16.4713Z" fill="#676C72"/>
<path d="M370.962 0.557583H373.108V17.275H370.962V0.557583Z" fill="#676C72"/>
<path d="M377.056 16.3907C376.284 15.587 375.854 14.4618 375.854 12.9348V5.70126H378V12.6133C378 14.7029 379.03 15.8281 381.09 15.8281C381.776 15.8281 382.377 15.6674 382.892 15.2655C383.407 14.9441 383.836 14.4618 384.094 13.8992C384.351 13.3366 384.523 12.6936 384.523 12.0507V5.70126H386.583V17.2748H384.609V15.587H384.523C384.18 16.1496 383.579 16.7122 382.892 17.1141C382.12 17.516 381.347 17.7571 380.489 17.7571C378.944 17.6767 377.828 17.2748 377.056 16.3907Z" fill="#676C72"/>
<path d="M393.277 17.0339C392.504 16.632 391.989 16.1498 391.56 15.5068H391.474V17.1946H389.5V0.557583H391.646V5.78177L391.56 7.38921H391.646C392.075 6.82661 392.59 6.34437 393.363 5.94251C394.135 5.54065 394.993 5.37991 395.937 5.37991C396.967 5.37991 397.997 5.62102 398.855 6.18363C399.714 6.74623 400.486 7.46958 401.001 8.35368C401.516 9.31814 401.774 10.363 401.774 11.4882C401.774 12.6134 401.516 13.7386 401.001 14.6227C400.486 15.5872 399.8 16.3105 398.855 16.7927C397.997 17.3553 396.967 17.5965 395.937 17.5965C394.908 17.6768 394.049 17.4357 393.277 17.0339ZM397.568 15.346C398.169 15.0246 398.684 14.462 399.027 13.819C399.37 13.176 399.628 12.3723 399.628 11.4882C399.628 10.6041 399.456 9.88074 399.027 9.1574C398.684 8.51442 398.169 7.95181 397.568 7.63033C396.967 7.30884 396.281 7.06772 395.508 7.06772C394.736 7.06772 394.135 7.22847 393.448 7.63033C392.848 7.95181 392.333 8.51442 391.989 9.1574C391.646 9.80037 391.389 10.6041 391.389 11.4882C391.389 12.3723 391.56 13.0956 391.989 13.819C392.333 14.462 392.848 15.0246 393.448 15.346C394.049 15.6675 394.736 15.9086 395.508 15.9086C396.281 15.9086 396.967 15.6675 397.568 15.346Z" fill="#676C72"/>
<path d="M404.777 16.7124C403.833 16.0694 403.232 15.3461 402.889 14.3816L404.777 13.5779C405.12 14.3013 405.55 14.8639 406.15 15.2657C406.751 15.6676 407.438 15.8283 408.124 15.8283C408.897 15.8283 409.583 15.6676 410.098 15.3461C410.613 15.0246 410.871 14.6227 410.871 14.1405C410.871 13.6583 410.699 13.3368 410.27 13.0153C409.841 12.6938 409.24 12.4527 408.296 12.2116L406.579 11.8097C405.635 11.5686 404.863 11.2471 404.176 10.6845C403.49 10.1219 403.232 9.47893 403.232 8.59484C403.232 7.87149 403.49 7.22851 403.919 6.74628C404.348 6.26405 404.949 5.86218 405.635 5.62107C406.408 5.37995 407.18 5.21921 408.038 5.21921C409.068 5.21921 410.098 5.46033 410.957 5.94256C411.815 6.42479 412.416 7.06777 412.845 7.87149L410.957 8.59484C410.699 8.03223 410.27 7.63037 409.755 7.38925C409.24 7.14814 408.639 6.98739 407.953 6.98739C407.266 6.98739 406.751 7.14814 406.236 7.46963C405.721 7.79111 405.464 8.1126 405.464 8.59484C405.464 8.9967 405.635 9.31819 405.979 9.5593C406.322 9.80042 406.837 10.0415 407.609 10.2023L409.412 10.6041C410.613 10.9256 411.557 11.3275 412.158 11.8901C412.759 12.4527 413.102 13.176 413.102 13.9798C413.102 14.6227 412.931 15.2657 412.501 15.8283C412.072 16.3909 411.472 16.7928 410.785 17.1143C410.012 17.4358 409.154 17.5965 408.21 17.5965C406.837 17.6769 405.721 17.3554 404.777 16.7124Z" fill="#676C72"/>
<path d="M11.6956 17.157L19.6774 12.8169C21.5656 11.7721 22.1664 9.52165 21.1365 7.83384C20.0207 6.06565 17.6176 5.50305 15.8153 6.46752L1.99731 13.9421L11.6956 17.157Z" fill="#FD2B25"/>
<path d="M17.7025 28.2489C19.0757 28.2489 20.3631 27.6059 21.1356 26.4003C22.2513 24.6321 21.5647 22.3817 19.6765 21.4172L5.85858 13.9426C3.97041 12.8978 1.56729 13.5408 0.537376 15.309C-0.578359 17.0772 0.108247 19.3276 1.99642 20.292L15.8144 27.7666C16.3293 28.0881 17.0159 28.2489 17.7025 28.2489Z" fill="#1F86FB"/>
<path d="M31.4351 28.2481C32.1217 28.2481 32.8083 28.0874 33.4091 27.7659L47.1412 20.2913L37.5287 16.996L29.4611 21.4165C27.5729 22.4613 26.9721 24.7118 28.002 26.3996C28.6887 27.6051 30.0619 28.2481 31.4351 28.2481Z" fill="#FFB800"/>
<path d="M45.1669 20.8544C46.5401 20.8544 47.8275 20.2114 48.5999 19.0058C49.7157 17.2376 49.0291 14.9872 47.1409 14.0227L33.3229 6.54815C31.4348 5.50331 29.0316 6.14629 28.0017 7.91447C26.886 9.68266 27.5726 11.9331 29.4608 12.8975L43.2787 20.3721C43.7937 20.6936 44.4803 20.8544 45.1669 20.8544Z" fill="#00AA47"/>
<path d="M65.1211 37.5507C63.9329 37.5507 63 37.1972 62.3225 36.4902C61.6449 35.7832 61.3061 34.7718 61.3061 33.4559V27.0633H62.7054V33.235C62.7054 34.217 62.9067 34.978 63.3093 35.5181C63.712 36.0582 64.3159 36.3282 65.1211 36.3282C65.9557 36.3282 66.5793 36.068 66.9917 35.5475C67.4042 35.0173 67.6104 34.2464 67.6104 33.235V27.0633H68.9655V33.397C68.9655 34.2612 68.8035 35.0075 68.4794 35.6359C68.1652 36.2545 67.7184 36.7308 67.139 37.0647C66.5695 37.3887 65.8968 37.5507 65.1211 37.5507ZM71.2474 37.374V29.7146H72.5289V30.9961C72.8038 30.5837 73.1524 30.24 73.5747 29.965C74.0067 29.6803 74.5174 29.5379 75.1065 29.5379C75.9707 29.5379 76.6139 29.7981 77.0361 30.3186C77.4682 30.839 77.6842 31.5264 77.6842 32.3807V37.374H76.3585V32.528C76.3585 31.9781 76.226 31.5362 75.9608 31.2023C75.7055 30.8685 75.3471 30.7015 74.8856 30.7015C74.4339 30.7015 74.0067 30.8635 73.6041 31.1876C73.2015 31.5018 72.8578 31.875 72.5731 32.307V37.374H71.2474ZM79.9643 37.374V29.7146H81.2899V37.374H79.9643ZM80.6271 28.4037C80.3718 28.4037 80.1509 28.3104 79.9643 28.1239C79.7875 27.9373 79.6992 27.7212 79.6992 27.4758C79.6992 27.191 79.7826 26.9651 79.9496 26.7982C80.1165 26.6313 80.3423 26.5478 80.6271 26.5478C80.8824 26.5478 81.0985 26.6411 81.2752 26.8277C81.4618 27.0044 81.5551 27.2204 81.5551 27.4758C81.5551 27.7507 81.4716 27.9766 81.3047 28.1533C81.1377 28.3202 80.9119 28.4037 80.6271 28.4037ZM85.6941 37.374L82.6156 30.0682L83.8234 29.5673L86.4305 35.8716L89.0377 29.5673L90.1718 30.0682L87.0786 37.374H85.6941ZM94.2765 37.5507C93.1767 37.5507 92.3028 37.2021 91.6547 36.505C91.0164 35.7979 90.6973 34.8111 90.6973 33.5443C90.6973 32.7784 90.8397 32.0959 91.1244 31.4969C91.419 30.8881 91.8265 30.4118 92.347 30.0682C92.8674 29.7146 93.4713 29.5379 94.1587 29.5379C94.8952 29.5379 95.504 29.6999 95.9852 30.024C96.4762 30.3382 96.8444 30.7653 97.0899 31.3054C97.3354 31.8455 97.4581 32.4396 97.4581 33.0877C97.4581 33.4314 97.4434 33.7653 97.4139 34.0893H92.0524C92.1408 34.8061 92.3912 35.3659 92.8036 35.7685C93.216 36.1711 93.761 36.3724 94.4386 36.3724C94.8805 36.3724 95.2781 36.3282 95.6317 36.2398C95.9852 36.1416 96.3239 36.0189 96.648 35.8716L96.9573 37.0058C96.6038 37.1629 96.2061 37.2905 95.7642 37.3887C95.3223 37.4967 94.8264 37.5507 94.2765 37.5507ZM92.0377 33.0141H96.2356C96.2356 32.2678 96.049 31.6933 95.6758 31.2907C95.3027 30.8881 94.7872 30.6868 94.1292 30.6868C93.5597 30.6868 93.0884 30.8881 92.7152 31.2907C92.3421 31.6835 92.1162 32.2579 92.0377 33.0141ZM99.2249 37.374V29.7146H100.506V31.3791C100.634 31.055 100.806 30.7555 101.022 30.4806C101.238 30.1958 101.508 29.97 101.832 29.803C102.156 29.6263 102.534 29.5379 102.966 29.5379C103.113 29.5379 103.261 29.5477 103.408 29.5673C103.555 29.5772 103.678 29.5968 103.776 29.6263L103.379 30.9961C103.192 30.9176 102.971 30.8783 102.716 30.8783C102.352 30.8783 102.004 30.9814 101.67 31.1876C101.346 31.3938 101.076 31.7129 100.86 32.145C100.654 32.5771 100.551 33.127 100.551 33.7947V37.374H99.2249ZM106.796 37.5507C106.217 37.5507 105.691 37.4771 105.22 37.3298C104.759 37.1825 104.376 36.991 104.071 36.7554L104.631 35.6506C104.886 35.8667 105.205 36.0483 105.588 36.1956C105.981 36.3331 106.398 36.4018 106.84 36.4018C107.39 36.4018 107.803 36.3135 108.078 36.1367C108.362 35.9501 108.505 35.7145 108.505 35.4297C108.505 35.2235 108.451 35.0418 108.343 34.8847C108.245 34.7276 108.058 34.5754 107.783 34.4281C107.508 34.271 107.11 34.104 106.59 33.9273C105.873 33.6818 105.333 33.3921 104.97 33.0582C104.616 32.7146 104.439 32.2432 104.439 31.6442C104.439 31.055 104.695 30.5591 105.205 30.1565C105.726 29.7441 106.443 29.5379 107.356 29.5379C107.847 29.5379 108.284 29.5919 108.667 29.6999C109.05 29.7981 109.393 29.9258 109.698 30.0829L109.33 31.1729C109.065 31.0158 108.76 30.8881 108.416 30.7899C108.083 30.6917 107.709 30.6426 107.297 30.6426C106.786 30.6426 106.398 30.7457 106.133 30.9519C105.868 31.1581 105.736 31.384 105.736 31.6295C105.736 31.8652 105.839 32.0665 106.045 32.2334C106.251 32.4003 106.654 32.582 107.253 32.7784C108.225 33.1024 108.902 33.4609 109.285 33.8536C109.668 34.2464 109.86 34.7374 109.86 35.3266C109.86 36.014 109.58 36.559 109.02 36.9616C108.47 37.3544 107.729 37.5507 106.796 37.5507ZM111.624 37.374V29.7146H112.95V37.374H111.624ZM112.287 28.4037C112.032 28.4037 111.811 28.3104 111.624 28.1239C111.447 27.9373 111.359 27.7212 111.359 27.4758C111.359 27.191 111.442 26.9651 111.609 26.7982C111.776 26.6313 112.002 26.5478 112.287 26.5478C112.542 26.5478 112.758 26.6411 112.935 26.8277C113.122 27.0044 113.215 27.2204 113.215 27.4758C113.215 27.7507 113.131 27.9766 112.965 28.1533C112.798 28.3202 112.572 28.4037 112.287 28.4037ZM117.987 37.5507C117.251 37.5507 116.667 37.3102 116.234 36.829C115.812 36.338 115.601 35.6408 115.601 34.7374V31.1434H114.275V29.9945H115.631L115.91 27.5789H116.927V29.9945H119.048V31.1434H116.927V34.8405C116.927 35.4101 117.045 35.8078 117.28 36.0336C117.526 36.2595 117.815 36.3724 118.149 36.3724C118.395 36.3724 118.626 36.3331 118.842 36.2545C119.067 36.176 119.274 36.0827 119.46 35.9747L119.828 37.0352C119.632 37.1531 119.367 37.266 119.033 37.374C118.699 37.4918 118.351 37.5507 117.987 37.5507ZM121.209 40.7912C120.914 40.7912 120.654 40.7618 120.428 40.7029C120.212 40.6439 120.04 40.5752 119.912 40.4967L120.207 39.3919C120.325 39.4607 120.472 39.5196 120.649 39.5687C120.826 39.6178 121.022 39.6423 121.238 39.6423C121.65 39.6423 122.019 39.5098 122.343 39.2446C122.667 38.9795 122.976 38.4591 123.271 37.6833L123.609 36.7995H122.902L119.912 30.0682L121.091 29.5379L123.948 35.9158L126.172 29.5968L127.395 30.0682L124.582 37.757C124.297 38.5425 123.988 39.1563 123.654 39.5982C123.32 40.04 122.952 40.3494 122.549 40.5261C122.146 40.7029 121.7 40.7912 121.209 40.7912ZM136.369 37.5507C135.642 37.5507 134.989 37.3838 134.41 37.0499C133.83 36.7063 133.374 36.2349 133.04 35.6359C132.716 35.0271 132.554 34.3299 132.554 33.5443C132.554 32.7195 132.721 32.0075 133.055 31.4085C133.389 30.8095 133.845 30.348 134.424 30.024C135.004 29.6999 135.652 29.5379 136.369 29.5379C137.086 29.5379 137.729 29.6999 138.298 30.024C138.878 30.348 139.334 30.8095 139.668 31.4085C140.012 31.9977 140.184 32.6998 140.184 33.5149C140.184 34.3299 140.017 35.0418 139.683 35.6506C139.349 36.2496 138.892 36.7161 138.313 37.0499C137.744 37.3838 137.095 37.5507 136.369 37.5507ZM136.369 36.3724C137.145 36.3724 137.748 36.1122 138.181 35.5917C138.613 35.0615 138.829 34.379 138.829 33.5443C138.829 33.0337 138.721 32.5673 138.505 32.145C138.289 31.7129 137.994 31.3693 137.621 31.1139C137.257 30.8488 136.84 30.7163 136.369 30.7163C135.593 30.7163 134.989 30.9716 134.557 31.4822C134.125 31.9928 133.909 32.6704 133.909 33.5149C133.909 34.0255 134.017 34.5017 134.233 34.9436C134.449 35.3757 134.739 35.7243 135.102 35.9894C135.475 36.2447 135.897 36.3724 136.369 36.3724ZM142.094 37.374V31.1434H140.915V29.9945H142.094V29.096C142.094 28.2319 142.334 27.5494 142.815 27.0486C143.296 26.5478 143.925 26.2974 144.701 26.2974C145.103 26.2974 145.457 26.3465 145.761 26.4447C146.066 26.5331 146.355 26.646 146.63 26.7835L146.232 27.9029C146.026 27.7949 145.805 27.6967 145.57 27.6083C145.334 27.5199 145.074 27.4758 144.789 27.4758C144.377 27.4758 144.043 27.6083 143.787 27.8735C143.542 28.1288 143.419 28.5068 143.419 29.0076V29.9945H145.688V31.1434H143.419V37.374H142.094ZM155.593 37.5507C154.699 37.5507 153.908 37.3396 153.221 36.9174C152.534 36.4853 151.999 35.8765 151.616 35.0909C151.233 34.2955 151.041 33.3528 151.041 32.2629C151.041 31.2121 151.233 30.2842 151.616 29.479C152.008 28.6639 152.558 28.0306 153.265 27.5789C153.982 27.1173 154.817 26.8866 155.769 26.8866C156.26 26.8866 156.707 26.9357 157.11 27.0339C157.512 27.1222 157.89 27.2499 158.244 27.4168L157.817 28.5952C157.512 28.4479 157.198 28.3301 156.874 28.2417C156.56 28.1533 156.187 28.1091 155.755 28.1091C155.126 28.1091 154.561 28.2712 154.061 28.5952C153.57 28.9192 153.182 29.3857 152.897 29.9945C152.612 30.6033 152.47 31.3398 152.47 32.2039C152.47 33.0288 152.607 33.7505 152.882 34.3692C153.167 34.9878 153.555 35.469 154.046 35.8127C154.547 36.1564 155.116 36.3282 155.755 36.3282C156.236 36.3282 156.653 36.2693 157.007 36.1514C157.36 36.0336 157.704 35.8814 158.038 35.6948L158.465 36.8585C158.101 37.0549 157.684 37.2218 157.213 37.3593C156.751 37.4869 156.211 37.5507 155.593 37.5507ZM162.714 37.5507C162.076 37.5507 161.496 37.3887 160.976 37.0647C160.455 36.7406 160.038 36.284 159.724 35.6948C159.419 35.0958 159.267 34.3937 159.267 33.5885C159.267 32.8226 159.419 32.1352 159.724 31.5264C160.038 30.9176 160.465 30.4364 161.005 30.0829C161.555 29.7196 162.184 29.5379 162.891 29.5379C163.333 29.5379 163.73 29.6164 164.084 29.7736C164.447 29.9209 164.761 30.1074 165.026 30.3333V29.7146H166.234V35.5181C166.234 35.8912 166.323 36.1367 166.499 36.2545C166.686 36.3626 166.887 36.4166 167.103 36.4166L166.823 37.4476C165.881 37.4476 165.311 37.0647 165.115 36.2987C164.889 36.613 164.58 36.9026 164.187 37.1678C163.804 37.4231 163.313 37.5507 162.714 37.5507ZM163.008 36.3724C163.382 36.3724 163.735 36.284 164.069 36.1073C164.403 35.9207 164.683 35.6899 164.909 35.415V31.3054C164.643 31.1189 164.349 30.9716 164.025 30.8635C163.711 30.7457 163.377 30.6868 163.023 30.6868C162.552 30.6868 162.135 30.8095 161.771 31.055C161.418 31.2907 161.138 31.6246 160.932 32.0566C160.725 32.4789 160.622 32.9748 160.622 33.5443C160.622 34.0942 160.725 34.5852 160.932 35.0173C161.138 35.4395 161.423 35.7734 161.786 36.0189C162.149 36.2545 162.557 36.3724 163.008 36.3724ZM171.201 37.5507C170.749 37.5507 170.342 37.4673 169.978 37.3003C169.615 37.1236 169.325 36.8437 169.109 36.4608C168.903 36.0778 168.8 35.5819 168.8 34.9731V26.4742H170.126V34.8405C170.126 35.3708 170.234 35.7636 170.45 36.0189C170.676 36.2742 170.985 36.4018 171.378 36.4018C171.564 36.4018 171.746 36.3822 171.923 36.3429C172.109 36.2938 172.266 36.2398 172.394 36.1809L172.718 37.2562C172.541 37.3347 172.32 37.4035 172.055 37.4624C171.8 37.5213 171.515 37.5507 171.201 37.5507ZM173.966 37.374V29.7146H175.291V37.374H173.966ZM174.628 28.4037C174.373 28.4037 174.152 28.3104 173.966 28.1239C173.789 27.9373 173.701 27.7212 173.701 27.4758C173.701 27.191 173.784 26.9651 173.951 26.7982C174.118 26.6313 174.344 26.5478 174.628 26.5478C174.884 26.5478 175.1 26.6411 175.277 26.8277C175.463 27.0044 175.556 27.2204 175.556 27.4758C175.556 27.7507 175.473 27.9766 175.306 28.1533C175.139 28.3202 174.913 28.4037 174.628 28.4037ZM177.795 37.374V31.1434H176.617V29.9945H177.795V29.096C177.795 28.2319 178.036 27.5494 178.517 27.0486C178.998 26.5478 179.627 26.2974 180.402 26.2974C180.805 26.2974 181.159 26.3465 181.463 26.4447C181.767 26.5331 182.057 26.646 182.332 26.7835L181.934 27.9029C181.728 27.7949 181.507 27.6967 181.271 27.6083C181.036 27.5199 180.776 27.4758 180.491 27.4758C180.078 27.4758 179.745 27.6083 179.489 27.8735C179.244 28.1288 179.121 28.5068 179.121 29.0076V29.9945H181.389V31.1434H179.121V37.374H177.795ZM185.779 37.5507C185.052 37.5507 184.399 37.3838 183.82 37.0499C183.24 36.7063 182.784 36.2349 182.45 35.6359C182.126 35.0271 181.964 34.3299 181.964 33.5443C181.964 32.7195 182.131 32.0075 182.465 31.4085C182.799 30.8095 183.255 30.348 183.835 30.024C184.414 29.6999 185.062 29.5379 185.779 29.5379C186.496 29.5379 187.139 29.6999 187.708 30.024C188.288 30.348 188.744 30.8095 189.078 31.4085C189.422 31.9977 189.594 32.6998 189.594 33.5149C189.594 34.3299 189.427 35.0418 189.093 35.6506C188.759 36.2496 188.302 36.7161 187.723 37.0499C187.154 37.3838 186.505 37.5507 185.779 37.5507ZM185.779 36.3724C186.555 36.3724 187.159 36.1122 187.591 35.5917C188.023 35.0615 188.239 34.379 188.239 33.5443C188.239 33.0337 188.131 32.5673 187.915 32.145C187.699 31.7129 187.404 31.3693 187.031 31.1139C186.668 30.8488 186.25 30.7163 185.779 30.7163C185.003 30.7163 184.399 30.9716 183.967 31.4822C183.535 31.9928 183.319 32.6704 183.319 33.5149C183.319 34.0255 183.427 34.5017 183.643 34.9436C183.859 35.3757 184.149 35.7243 184.512 35.9894C184.885 36.2447 185.307 36.3724 185.779 36.3724ZM191.356 37.374V29.7146H192.638V31.3791C192.765 31.055 192.937 30.7555 193.153 30.4806C193.369 30.1958 193.639 29.97 193.963 29.803C194.287 29.6263 194.665 29.5379 195.098 29.5379C195.245 29.5379 195.392 29.5477 195.539 29.5673C195.687 29.5772 195.809 29.5968 195.908 29.6263L195.51 30.9961C195.323 30.9176 195.102 30.8783 194.847 30.8783C194.484 30.8783 194.135 30.9814 193.801 31.1876C193.477 31.3938 193.207 31.7129 192.991 32.145C192.785 32.5771 192.682 33.127 192.682 33.7947V37.374H191.356ZM197.239 37.374V29.7146H198.521V30.9961C198.796 30.5837 199.144 30.24 199.567 29.965C199.999 29.6803 200.509 29.5379 201.099 29.5379C201.963 29.5379 202.606 29.7981 203.028 30.3186C203.46 30.839 203.676 31.5264 203.676 32.3807V37.374H202.351V32.528C202.351 31.9781 202.218 31.5362 201.953 31.2023C201.698 30.8685 201.339 30.7015 200.878 30.7015C200.426 30.7015 199.999 30.8635 199.596 31.1876C199.194 31.5018 198.85 31.875 198.565 32.307V37.374H197.239ZM205.956 37.374V29.7146H207.282V37.374H205.956ZM206.619 28.4037C206.364 28.4037 206.143 28.3104 205.956 28.1239C205.78 27.9373 205.691 27.7212 205.691 27.4758C205.691 27.191 205.775 26.9651 205.942 26.7982C206.109 26.6313 206.334 26.5478 206.619 26.5478C206.874 26.5478 207.09 26.6411 207.267 26.8277C207.454 27.0044 207.547 27.2204 207.547 27.4758C207.547 27.7507 207.464 27.9766 207.297 28.1533C207.13 28.3202 206.904 28.4037 206.619 28.4037ZM212.57 37.5507C211.932 37.5507 211.352 37.3887 210.832 37.0647C210.311 36.7406 209.894 36.284 209.58 35.6948C209.275 35.0958 209.123 34.3937 209.123 33.5885C209.123 32.8226 209.275 32.1352 209.58 31.5264C209.894 30.9176 210.321 30.4364 210.861 30.0829C211.411 29.7196 212.04 29.5379 212.747 29.5379C213.189 29.5379 213.586 29.6164 213.94 29.7736C214.303 29.9209 214.617 30.1074 214.882 30.3333V29.7146H216.09V35.5181C216.09 35.8912 216.179 36.1367 216.355 36.2545C216.542 36.3626 216.743 36.4166 216.959 36.4166L216.679 37.4476C215.737 37.4476 215.167 37.0647 214.971 36.2987C214.745 36.613 214.436 36.9026 214.043 37.1678C213.66 37.4231 213.169 37.5507 212.57 37.5507ZM212.864 36.3724C213.238 36.3724 213.591 36.284 213.925 36.1073C214.259 35.9207 214.539 35.6899 214.765 35.415V31.3054C214.499 31.1189 214.205 30.9716 213.881 30.8635C213.567 30.7457 213.233 30.6868 212.879 30.6868C212.408 30.6868 211.991 30.8095 211.627 31.055C211.274 31.2907 210.994 31.6246 210.788 32.0566C210.581 32.4789 210.478 32.9748 210.478 33.5443C210.478 34.0942 210.581 34.5852 210.788 35.0173C210.994 35.4395 211.279 35.7734 211.642 36.0189C212.005 36.2545 212.413 36.3724 212.864 36.3724ZM218.715 39.7307L217.993 39.3183C218.386 38.8175 218.7 38.3118 218.936 37.8011C219.181 37.2905 219.368 36.7063 219.496 36.0483L220.792 36.4166C220.694 37.1629 220.458 37.8159 220.085 38.3756C219.721 38.9353 219.265 39.387 218.715 39.7307ZM230.419 37.4918C229.859 37.4918 229.368 37.4771 228.946 37.4476C228.534 37.4182 228.121 37.3838 227.709 37.3445V27.0928C228.17 27.0437 228.622 27.0093 229.064 26.9897C229.506 26.9602 230.012 26.9455 230.581 26.9455C231.465 26.9455 232.226 27.083 232.864 27.3579C233.512 27.6329 234.043 28.0109 234.455 28.4921C234.877 28.9733 235.187 29.533 235.383 30.1713C235.589 30.7997 235.692 31.4773 235.692 32.2039C235.692 32.9208 235.589 33.5983 235.383 34.2366C235.177 34.8749 234.858 35.4395 234.425 35.9305C234.003 36.4117 233.458 36.7946 232.791 37.0794C232.133 37.3544 231.342 37.4918 230.419 37.4918ZM230.463 36.2693C231.347 36.2693 232.069 36.0974 232.628 35.7537C233.188 35.4101 233.601 34.9338 233.866 34.325C234.131 33.7063 234.263 32.9993 234.263 32.2039C234.263 31.4969 234.131 30.8341 233.866 30.2154C233.601 29.5968 233.193 29.1009 232.643 28.7278C232.093 28.3448 231.391 28.1533 230.537 28.1533C230.252 28.1533 229.992 28.1631 229.756 28.1828C229.521 28.1926 229.305 28.2073 229.108 28.227V36.1956C229.314 36.2251 229.53 36.2447 229.756 36.2545C229.982 36.2644 230.218 36.2693 230.463 36.2693ZM240.533 37.5507C239.895 37.5507 239.315 37.3887 238.795 37.0647C238.274 36.7406 237.857 36.284 237.543 35.6948C237.238 35.0958 237.086 34.3937 237.086 33.5885C237.086 32.8226 237.238 32.1352 237.543 31.5264C237.857 30.9176 238.284 30.4364 238.824 30.0829C239.374 29.7196 240.003 29.5379 240.71 29.5379C241.152 29.5379 241.549 29.6164 241.903 29.7736C242.266 29.9209 242.58 30.1074 242.845 30.3333V29.7146H244.053V35.5181C244.053 35.8912 244.142 36.1367 244.318 36.2545C244.505 36.3626 244.706 36.4166 244.922 36.4166L244.642 37.4476C243.7 37.4476 243.13 37.0647 242.934 36.2987C242.708 36.613 242.399 36.9026 242.006 37.1678C241.623 37.4231 241.132 37.5507 240.533 37.5507ZM240.828 36.3724C241.201 36.3724 241.554 36.284 241.888 36.1073C242.222 35.9207 242.502 35.6899 242.728 35.415V31.3054C242.463 31.1189 242.168 30.9716 241.844 30.8635C241.53 30.7457 241.196 30.6868 240.842 30.6868C240.371 30.6868 239.954 30.8095 239.59 31.055C239.237 31.2907 238.957 31.6246 238.751 32.0566C238.544 32.4789 238.441 32.9748 238.441 33.5443C238.441 34.0942 238.544 34.5852 238.751 35.0173C238.957 35.4395 239.242 35.7734 239.605 36.0189C239.968 36.2545 240.376 36.3724 240.828 36.3724ZM248.452 37.374L245.374 30.0682L246.582 29.5673L249.189 35.8716L251.796 29.5673L252.93 30.0682L249.837 37.374H248.452ZM254.259 37.374V29.7146H255.584V37.374H254.259ZM254.922 28.4037C254.666 28.4037 254.445 28.3104 254.259 28.1239C254.082 27.9373 253.994 27.7212 253.994 27.4758C253.994 27.191 254.077 26.9651 254.244 26.7982C254.411 26.6313 254.637 26.5478 254.922 26.5478C255.177 26.5478 255.393 26.6411 255.57 26.8277C255.756 27.0044 255.85 27.2204 255.85 27.4758C255.85 27.7507 255.766 27.9766 255.599 28.1533C255.432 28.3202 255.206 28.4037 254.922 28.4037ZM260.003 37.5507C259.424 37.5507 258.899 37.4771 258.427 37.3298C257.966 37.1825 257.583 36.991 257.278 36.7554L257.838 35.6506C258.093 35.8667 258.412 36.0483 258.795 36.1956C259.188 36.3331 259.606 36.4018 260.047 36.4018C260.597 36.4018 261.01 36.3135 261.285 36.1367C261.57 35.9501 261.712 35.7145 261.712 35.4297C261.712 35.2235 261.658 35.0418 261.55 34.8847C261.452 34.7276 261.265 34.5754 260.99 34.4281C260.715 34.271 260.318 34.104 259.797 33.9273C259.08 33.6818 258.54 33.3921 258.177 33.0582C257.823 32.7146 257.647 32.2432 257.647 31.6442C257.647 31.055 257.902 30.5591 258.412 30.1565C258.933 29.7441 259.65 29.5379 260.563 29.5379C261.054 29.5379 261.491 29.5919 261.874 29.6999C262.257 29.7981 262.601 29.9258 262.905 30.0829L262.537 31.1729C262.272 31.0158 261.967 30.8881 261.624 30.7899C261.29 30.6917 260.917 30.6426 260.504 30.6426C259.993 30.6426 259.606 30.7457 259.34 30.9519C259.075 31.1581 258.943 31.384 258.943 31.6295C258.943 31.8652 259.046 32.0665 259.252 32.2334C259.458 32.4003 259.861 32.582 260.46 32.7784C261.432 33.1024 262.11 33.4609 262.493 33.8536C262.876 34.2464 263.067 34.7374 263.067 35.3266C263.067 36.014 262.787 36.559 262.227 36.9616C261.678 37.3544 260.936 37.5507 260.003 37.5507Z" fill="#676C72"/>
</svg>
